<?xml version="1.0" encoding="utf-8" standalone="no"?>
<!DOCTYPE svg PUBLIC "-//W3C//DTD SVG 1.1//EN" "http://www.w3.org/Graphics/SVG/1.1/DTD/svg11.dtd">
<svg xmlns="http://www.w3.org/2000/svg" xmlns:xl="http://www.w3.org/1999/xlink" version="1.1" viewBox="0 0 1686.6142 836.22047" width="1686.6142pt" height="836.22047pt" xmlns:dc="http://purl.org/dc/elements/1.1/"><metadata> Produced by OmniGraffle 6.2 <dc:date>2015-04-15 12:29:28 +0000</dc:date></metadata><defs/><g stroke="none" stroke-opacity="1" stroke-dasharray="none" fill="none" fill-opacity="1"><title>print</title><g><title>Layer 1</title><path d="M 72.283465 365.66922 L 72.283465 274.96056 L 162.99213 274.96056 L 162.99213 365.66922 Z M 75.11811 379.84245 L 75.11811 371.33851 L 103.46457 371.33851 L 103.46457 379.84245 Z M 131.81102 379.84245 L 131.81102 371.33851 L 160.15748 371.33851 L 160.15748 379.84245 Z M 75.11811 269.29127 L 75.11811 260.78733 L 103.46457 260.78733 L 103.46457 269.29127 Z M 131.81102 269.29127 L 131.81102 260.78733 L 160.15748 260.78733 L 160.15748 269.29127 Z M 162.64824 705.4828 C 165.96923 702.1618 171.35362 702.1618 174.67461 705.4828 C 177.99562 708.8038 177.99562 714.18817 174.67461 717.50916 C 171.35362 720.83017 165.96923 720.83017 162.64824 717.50916 C 159.32723 714.18817 159.32723 708.8038 162.64824 705.4828 M 141.97547 707.48723 C 144.18946 705.27323 147.77905 705.27323 149.99305 707.48723 C 152.20705 709.70123 152.20705 713.2908 149.99305 715.5048 C 147.77905 717.7188 144.18946 717.7188 141.97547 715.5048 C 139.76146 713.2908 139.76146 709.70123 141.97547 707.48723 M 216.85043 768.18893 L 199.84247 768.18893 L 199.84247 654.8031 L 216.85043 654.8031 L 216.85043 640.62983 L 208.34641 640.62983 L 208.34641 586.77157 L 216.85043 586.77157 L 216.85043 558.42517 L 208.34641 558.42517 L 208.34641 530.0787 L 216.85043 530.0787 L 216.85043 501.73226 L 208.34641 501.73226 L 208.34641 473.3858 L 216.85043 473.3858 L 216.85043 445.03935 L 208.34641 445.03935 L 208.34641 391.18108 L 216.85043 391.18108 L 216.85043 362.83463 L 208.34641 362.83463 L 208.34641 334.48817 L 216.85043 334.48817 L 216.85043 306.14172 L 208.34641 306.14172 L 208.34641 277.79526 L 216.85043 277.79526 L 216.85043 249.4488 L 208.34641 249.4488 L 208.34641 195.59054 L 216.85043 195.59054 L 216.85043 167.24409 L 208.34641 167.24409 L 208.34641 138.89763 L 216.85043 138.89763 L 216.85043 110.55117 L 208.34641 110.55117 L 208.34641 82.204715 L 216.85043 82.204715 L 216.85043 53.858265 L 208.34641 53.858265 L 208.34641 11.338582 L 188.50389 11.338582 L 188.50389 19.842525 L 160.15744 19.842525 L 160.15744 11.338582 L 131.81098 11.338582 L 131.81098 19.842525 L 103.464525 19.842525 L 103.464525 11.338582 L 75.11807 11.338582 L 75.11807 19.842525 L 46.771615 19.842525 L 46.771615 11.338582 L 26.9291 11.338582 L 26.9291 53.858265 L 18.425162 53.858265 L 18.425162 82.204715 L 26.9291 82.204715 L 26.9291 110.55117 L 18.425162 110.55117 L 18.425162 138.89763 L 26.9291 138.89763 L 26.9291 167.24409 L 18.425162 167.24409 L 18.425162 195.59054 L 26.9291 195.59054 L 26.9291 249.4488 L 18.425162 249.4488 L 18.425162 277.79526 L 26.9291 277.79526 L 26.9291 306.14172 L 18.425162 306.14172 L 18.425162 334.48817 L 26.9291 334.48817 L 26.9291 362.83463 L 18.425162 362.83463 L 18.425162 391.18108 L 26.9291 391.18108 L 26.9291 445.03935 L 18.425162 445.03935 L 18.425162 473.3858 L 26.9291 473.3858 L 26.9291 501.73226 L 18.425162 501.73226 L 18.425162 530.0787 L 26.9291 530.0787 L 26.9291 558.42517 L 18.425162 558.42517 L 18.425162 586.77157 L 26.9291 586.77157 L 26.9291 640.62983 L 18.425162 640.62983 L 18.425162 668.9763 L 26.9291 668.9763 L 26.9291 697.32275 L 18.425162 697.32275 L 18.425162 725.6692 L 26.9291 725.6692 L 26.9291 754.01566 L 18.425162 754.01566 L 18.425162 782.36216 L 26.9291 782.36216 L 26.9291 816.3779 L 46.771618 816.3779 L 46.771618 824.88184 L 75.11807 824.88184 L 75.11807 816.3779 L 103.46453 816.3779 L 103.46453 824.88184 L 131.81098 824.88184 L 131.81098 816.3779 L 160.15744 816.3779 L 160.15744 824.88184 L 188.50389 824.88184 L 188.50389 816.3779 L 208.34641 816.3779 L 208.34641 782.36216 L 216.85043 782.36216 Z" stroke="blue" stroke-linecap="round" stroke-linejoin="round" stroke-width=".5"/><path d="M 194.45224 130.981294 C 194.2662 131.17712 194.10954 131.40722 193.98225 131.67158 C 193.85497 131.93595 193.79132 132.215 193.79132 132.50874 C 193.79132 132.73394 193.83538 132.942004 193.9235 133.132935 C 194.01163 133.323865 194.16339 133.41933 194.3788 133.41933 C 194.58442 133.41933 194.73129 133.314074 194.81941 133.10356 C 194.90753 132.89305 195.00544 132.5528 195.11315 132.08282 C 195.1719 131.80866 195.25512 131.532056 195.36283 131.253 C 195.47053 130.97395 195.61251 130.721825 195.78875 130.496625 C 195.96499 130.271424 196.1804 130.090285 196.43498 129.95321 C 196.68955 129.81613 196.99308 129.74759 197.34557 129.74759 C 197.80576 129.74759 198.19496 129.84061 198.51318 130.02664 C 198.8314 130.21268 199.08842 130.45501 199.28425 130.75365 C 199.48007 131.05228 199.62205 131.38763 199.71017 131.7597 C 199.79829 132.13177 199.84235 132.50384 199.84235 132.87591 C 199.84235 133.47318 199.74689 134.05821 199.55596 134.631005 C 199.36503 135.2038 199.08353 135.68112 198.71146 136.062984 L 197.28682 134.71178 C 197.52181 134.496375 197.71764 134.23201 197.8743 133.91869 C 198.03096 133.605366 198.10929 133.27246 198.10929 132.91997 C 198.10929 132.72415 198.06278 132.53077 197.96976 132.33984 C 197.87675 132.14891 197.71274 132.05344 197.47775 132.05344 C 197.25255 132.05344 197.0861 132.17094 196.97839 132.40593 C 196.87069 132.64092 196.75809 133.008096 196.64059 133.50745 C 196.58185 133.76203 196.50352 134.0166 196.4056 134.271175 C 196.30769 134.52575 196.17551 134.75462 196.00905 134.95412 C 195.8426 135.15484 195.63698 135.318845 195.3922 135.44613 C 195.14742 135.57342 194.85368 135.63706 194.51098 135.63706 C 194.07037 135.63706 193.69586 135.544045 193.38743 135.35801 C 193.079 135.171975 192.82688 134.93209 192.63105 134.63835 C 192.43523 134.34461 192.2908 134.01905 192.19779 133.661666 C 192.10477 133.30428 192.05826 132.94935 192.05826 132.59686 C 192.05826 132.04855 192.14393 131.51247 192.31528 130.98864 C 192.48663 130.4648 192.74365 130.021746 193.08635 129.65947 Z" stroke="lime" stroke-linecap="round" stroke-linejoin="round" stroke-width="1"/><path d="M 194.0847 125.738415 L 196.88623 125.738415 C 197.23015 125.738415 197.4884 125.67232 197.65975 125.54014 C 197.83232 125.40796 197.91799 125.17052 197.91799 124.82782 C 197.91799 124.71033 197.90942 124.58549 197.88862 124.453306 C 197.86904 124.32112 197.83966 124.21097 197.8005 124.12285 L 199.56293 124.093475 C 199.62168 124.25993 199.67308 124.47044 199.71715 124.725014 C 199.76121 124.97959 199.78324 125.23416 199.78324 125.48874 C 199.78324 125.9783 199.72204 126.38954 199.59965 126.72244 C 199.47726 127.05535 199.29979 127.32216 199.0697 127.52288 C 198.83838 127.7236 198.56422 127.868025 198.24478 127.95615 C 197.92534 128.04427 197.5704 128.08833 197.17752 128.08833 L 194.0847 128.08833 L 194.0847 129.26329 L 192.29288 129.26329 L 192.29288 128.10302 L 190.36889 128.10302 L 190.36889 125.738415 L 192.29288 125.738415 L 192.29288 124.02004 L 194.0847 124.02004 Z" stroke="lime" stroke-linecap="round" stroke-linejoin="round" stroke-width="1"/><path d="M 195.11327 117.85176 C 194.73141 117.85176 194.4034 117.9717 194.12924 118.21159 C 193.85509 118.45148 193.71801 118.81131 193.71801 119.29108 C 193.71801 119.52607 193.75473 119.74148 193.82816 119.93731 C 193.9016 120.133135 194.00196 120.30448 194.12924 120.45135 C 194.25653 120.59822 194.40585 120.71572 194.5772 120.80384 C 194.74855 120.89196 194.92724 120.94092 195.11327 120.95071 Z M 196.03855 115.63403 L 196.33229 115.63403 C 196.4302 115.63403 196.52322 115.63892 196.61134 115.648715 L 196.61134 120.95071 C 196.81696 120.93113 197.003 120.86993 197.16945 120.76712 C 197.3359 120.66431 197.48032 120.53213 197.60271 120.370574 C 197.7251 120.20902 197.82057 120.02788 197.88911 119.827156 C 197.95765 119.626434 197.99192 119.41837 197.99192 119.20296 C 197.99192 118.8211 197.92093 118.497986 197.77896 118.23362 C 197.63698 117.969255 197.4534 117.753846 197.2282 117.587394 L 198.28566 115.91308 C 198.78501 116.255776 199.16932 116.708624 199.43858 117.271624 C 199.70784 117.834625 199.84247 118.488195 199.84247 119.232334 C 199.84247 119.78065 199.7568 120.29959 199.58545 120.78915 C 199.4141 121.27872 199.16443 121.70709 198.83642 122.07426 C 198.50841 122.441436 198.10452 122.73028 197.62474 122.94079 C 197.14497 123.151306 196.59665 123.25656 195.9798 123.25656 C 195.38253 123.25656 194.84156 123.153754 194.35689 122.94814 C 193.87222 122.74252 193.46099 122.46347 193.12319 122.11098 C 192.78539 121.75849 192.52347 121.34236 192.33743 120.86259 C 192.1514 120.38281 192.05838 119.863874 192.05838 119.30577 C 192.05838 118.76725 192.14895 118.272786 192.33009 117.822386 C 192.51123 117.371985 192.77315 116.98523 193.11584 116.662115 C 193.45854 116.339 193.87467 116.086876 194.36424 115.90574 C 194.8538 115.7246 195.41191 115.63403 196.03855 115.63403" stroke="lime" stroke-linecap="round" stroke-linejoin="round" stroke-width="1"/><path d="M 194.27599 109.391945 C 194.24662 109.49965 194.22704 109.604906 194.21724 109.707715 C 194.20745 109.810524 194.20256 109.910885 194.20256 110.0088 C 194.20256 110.33191 194.2613 110.60362 194.37758 110.823924 C 194.49507 111.04423 194.63705 111.22047 194.8035 111.352655 C 194.96873 111.48484 195.14987 111.5803 195.34569 111.63905 C 195.5403 111.6978 195.71042 111.72717 195.85729 111.72717 L 199.60736 111.72717 L 199.60736 114.135835 L 192.30182 114.135835 L 192.30182 111.815294 L 193.35928 111.815294 L 193.35928 111.78592 C 192.98476 111.599886 192.67878 111.33552 192.44257 110.992824 C 192.20635 110.65013 192.08763 110.25358 192.08763 109.80318 C 192.08763 109.70527 192.09253 109.6098 192.10232 109.516784 C 192.11211 109.42377 192.1268 109.347884 192.14638 109.289136 Z" stroke="lime" stroke-linecap="round" stroke-linejoin="round" stroke-width="1"/><path d="M 199.60724 103.517404 L 195.61238 103.517404 C 195.40677 103.517404 195.21094 103.53454 195.0249 103.567584 C 194.83887 103.60308 194.67487 103.658154 194.53289 103.73771 C 194.39092 103.81604 194.27832 103.92619 194.19509 104.06694 C 194.11187 104.21014 194.07025 104.390054 194.07025 104.60546 C 194.07025 104.81965 194.11187 105.009355 194.19509 105.16969 C 194.27832 105.331244 194.39337 105.465874 194.54023 105.57358 C 194.6871 105.681283 194.856 105.76206 195.04694 105.815914 C 195.23787 105.869766 195.43614 105.89669 195.64176 105.89669 L 199.60724 105.89669 L 199.60724 108.32004 L 192.29313 108.32004 L 192.29313 105.984814 L 193.30653 105.984814 L 193.30653 105.95544 C 193.14987 105.86732 192.99566 105.75227 192.84389 105.610296 C 192.69213 105.46832 192.56239 105.300646 192.45469 105.112163 C 192.34698 104.92001 192.25886 104.71317 192.19032 104.48552 C 192.12178 104.26032 192.08751 104.021656 192.08751 103.76586 C 192.08751 103.27874 192.17563 102.86261 192.35188 102.51869 C 192.52812 102.175994 192.75577 101.89939 193.03482 101.688877 C 193.31387 101.478363 193.63454 101.32782 193.99682 101.234805 C 194.3591 101.14179 194.72137 101.094054 195.08365 101.094054 L 199.60724 101.094054 Z" stroke="lime" stroke-linecap="round" stroke-linejoin="round" stroke-width="1"/><path d="M 195.11327 94.23524 C 194.73141 94.23524 194.4034 94.355185 194.12924 94.59507 C 193.85509 94.83496 193.71801 95.19479 193.71801 95.674564 C 193.71801 95.909556 193.75473 96.124965 193.82816 96.32079 C 193.9016 96.516617 194.00196 96.687965 194.12924 96.834835 C 194.25653 96.981704 194.40585 97.0992 194.5772 97.18732 C 194.74855 97.27422 194.92724 97.323176 195.11327 97.33419 Z M 196.03855 92.01751 L 196.33229 92.01751 C 196.4302 92.01751 196.52322 92.022406 196.61134 92.032197 L 196.61134 97.33419 C 196.81696 97.31461 197.003 97.253413 197.16945 97.150604 C 197.3359 97.047796 197.48032 96.91439 197.60271 96.754056 C 197.7251 96.5925 197.82057 96.41136 197.88911 96.21064 C 197.95765 96.009917 197.99192 95.80185 197.99192 95.58644 C 197.99192 95.20458 197.92093 94.880244 197.77896 94.6171 C 197.63698 94.35274 197.4534 94.13733 197.2282 93.970876 L 198.28566 92.29656 C 198.78501 92.63926 199.16932 93.09088 199.43858 93.65388 C 199.70784 94.218107 199.84247 94.871677 199.84247 95.615816 C 199.84247 96.16413 199.7568 96.68307 199.58545 97.17141 C 199.4141 97.6622 199.16443 98.089346 198.83642 98.457744 C 198.50841 98.82492 198.10452 99.11376 197.62474 99.324275 C 197.14497 99.53479 196.59665 99.640045 195.9798 99.640045 C 195.38253 99.640045 194.84156 99.537236 194.35689 99.33162 C 193.87222 99.126 193.46099 98.84695 193.12319 98.49324 C 192.78539 98.14075 192.52347 97.725844 192.33743 97.24607 C 192.1514 96.766295 192.05838 96.247356 192.05838 95.68803 C 192.05838 95.15073 192.14895 94.65627 192.33009 94.20587 C 192.51123 93.75547 192.77315 93.36871 193.11584 93.044374 C 193.45854 92.722484 193.87467 92.47036 194.36424 92.28922 C 194.8538 92.10808 195.41191 92.01751 196.03855 92.01751" stroke="lime" stroke-linecap="round" stroke-linejoin="round" stroke-width="1"/><path d="M 199.60724 85.7157 L 195.61238 85.7157 C 195.40677 85.7157 195.21094 85.73406 195.0249 85.767105 C 194.83887 85.801374 194.67487 85.857674 194.53289 85.93723 C 194.39092 86.014335 194.27832 86.12571 194.19509 86.26646 C 194.11187 86.408436 194.07025 86.58835 194.07025 86.80376 C 194.07025 87.017945 194.11187 87.20765 194.19509 87.36921 C 194.27832 87.52954 194.39337 87.665395 194.54023 87.7731 C 194.6871 87.880804 194.856 87.96158 195.04694 88.01421 C 195.23787 88.069287 195.43614 88.09499 195.64176 88.09499 L 199.60724 88.09499 L 199.60724 90.51956 L 192.29313 90.51956 L 192.29313 88.184334 L 193.30653 88.184334 L 193.30653 88.153737 C 193.14987 88.065615 192.99566 87.950567 192.84389 87.808593 C 192.69213 87.667843 192.56239 87.500167 192.45469 87.31046 C 192.34698 87.118306 192.25886 86.911464 192.19032 86.68504 C 192.12178 86.45984 192.08751 86.219953 192.08751 85.96538 C 192.08751 85.477037 192.17563 85.060906 192.35188 84.71821 C 192.52812 84.37429 192.75577 84.09891 193.03482 83.888397 C 193.31387 83.67666 193.63454 83.52612 193.99682 83.4331 C 194.3591 83.340084 194.72137 83.293575 195.08365 83.293575 L 199.60724 83.293575 Z" stroke="lime" stroke-linecap="round" stroke-linejoin="round" stroke-width="1"/><path d="M 199.60724 72.16061 L 199.60724 74.582736 L 195.05428 76.023282 L 195.05428 76.052656 L 199.60724 77.462605 L 199.60724 79.885954 L 192.29313 82.41211 L 192.29313 79.81252 L 196.91952 78.54944 L 196.91952 78.50538 L 192.29313 77.19824 L 192.29313 74.77489 L 196.91952 73.42369 L 196.91952 73.394316 L 192.29313 72.11655 L 192.29313 69.619766 Z" stroke="lime" stroke-linecap="round" stroke-linejoin="round" stroke-width="1"/><path d="M 195.11327 63.64217 C 194.73141 63.64217 194.4034 63.762114 194.12924 64.002 C 193.85509 64.24189 193.71801 64.60172 193.71801 65.081493 C 193.71801 65.316485 193.75473 65.531893 193.82816 65.72772 C 193.9016 65.923546 194.00196 66.094894 194.12924 66.241763 C 194.25653 66.388633 194.40585 66.50613 194.5772 66.59425 C 194.74855 66.68115 194.92724 66.730105 195.11327 66.74112 Z M 196.03855 61.42444 L 196.33229 61.42444 C 196.4302 61.42444 196.52322 61.429335 196.61134 61.439126 L 196.61134 66.74112 C 196.81696 66.721538 197.003 66.660342 197.16945 66.557533 C 197.3359 66.454724 197.48032 66.321318 197.60271 66.160985 C 197.7251 65.99943 197.82057 65.81829 197.88911 65.617567 C 197.95765 65.416846 197.99192 65.20878 197.99192 64.99337 C 197.99192 64.61151 197.92093 64.287173 197.77896 64.02403 C 197.63698 63.759666 197.4534 63.544258 197.2282 63.377805 L 198.28566 61.70349 C 198.78501 62.046187 199.16932 62.49781 199.43858 63.06081 C 199.70784 63.625036 199.84247 64.278606 199.84247 65.022745 C 199.84247 65.57106 199.7568 66.09 199.58545 66.57834 C 199.4141 67.06913 199.16443 67.496275 198.83642 67.864673 C 198.50841 68.231847 198.10452 68.52069 197.62474 68.731204 C 197.14497 68.941717 196.59665 69.046974 195.9798 69.046974 C 195.38253 69.046974 194.84156 68.944165 194.35689 68.738548 C 193.87222 68.53293 193.46099 68.253878 193.12319 67.900167 C 192.78539 67.54768 192.52347 67.132773 192.33743 66.653 C 192.1514 66.173224 192.05838 65.654285 192.05838 65.094956 C 192.05838 64.55766 192.14895 64.063197 192.33009 63.612797 C 192.51123 63.162396 192.77315 62.77564 193.11584 62.451303 C 193.45854 62.129413 193.87467 61.877287 194.36424 61.696148 C 194.8538 61.51501 195.41191 61.42444 196.03855 61.42444" stroke="lime" stroke-linecap="round" stroke-linejoin="round" stroke-width="1"/><path d="M 194.65785 54.87283 C 194.48161 55.009907 194.33964 55.197166 194.23193 55.430933 C 194.12423 55.665925 194.07037 55.907036 194.07037 56.15182 C 194.07037 56.406392 194.12178 56.635264 194.22459 56.840882 C 194.3274 57.0465 194.46447 57.223967 194.63582 57.369613 C 194.80717 57.516482 195.00544 57.632754 195.23064 57.714756 C 195.45584 57.799206 195.69573 57.84082 195.95031 57.84082 C 196.20488 57.84082 196.44477 57.801654 196.66997 57.7221 C 196.89517 57.644993 197.09344 57.529945 197.26479 57.37818 C 197.43614 57.226415 197.57077 57.04405 197.66868 56.834762 C 197.76659 56.62425 197.81555 56.385586 197.81555 56.122444 C 197.81555 55.876438 197.76904 55.635327 197.67602 55.39544 C 197.58301 55.15433 197.44838 54.96095 197.27213 54.81408 L 198.90239 53.477567 C 199.19613 53.781097 199.42622 54.173974 199.59267 54.652524 C 199.75913 55.133522 199.84235 55.64267 199.84235 56.17997 C 199.84235 56.75888 199.75423 57.2974 199.57799 57.799206 C 199.40174 58.299787 199.14472 58.734276 198.80692 59.1039 C 198.46912 59.47352 198.06033 59.763588 197.58056 59.975325 C 197.10078 60.187062 196.55737 60.293543 195.95031 60.293543 C 195.35304 60.293543 194.81451 60.187062 194.33474 59.975325 C 193.85497 59.763588 193.44618 59.47352 193.10838 59.1039 C 192.77058 58.734276 192.51111 58.299787 192.32997 57.799206 C 192.14883 57.2974 192.05826 56.763775 192.05826 56.194655 C 192.05826 55.93029 192.08274 55.668372 192.1317 55.408903 C 192.18065 55.150657 192.24674 54.899755 192.32997 54.659867 C 192.4132 54.421204 192.516 54.199676 192.6384 53.998954 C 192.76079 53.799456 192.89542 53.624436 193.04229 53.477567 Z" stroke="lime" stroke-linecap="round" stroke-linejoin="round" stroke-width="1"/><path d="M 199.60724 44.67983 L 199.60724 47.662508 L 196.09705 50.056483 L 196.09705 50.100544 L 199.60724 50.100544 L 199.60724 52.52267 L 188.50389 52.52267 L 188.50389 50.100544 L 195.2599 50.100544 L 195.2599 50.056483 L 192.29313 47.720032 L 192.29313 44.79855 L 195.5977 47.617223 Z" stroke="lime" stroke-linecap="round" stroke-linejoin="round" stroke-width="1"/><path d="M 195.11327 39.02645 C 194.73141 39.02645 194.4034 39.146393 194.12924 39.38628 C 193.85509 39.626167 193.71801 39.985998 193.71801 40.465772 C 193.71801 40.700764 193.75473 40.916173 193.82816 41.111999 C 193.9016 41.307825 194.00196 41.479173 194.12924 41.626043 C 194.25653 41.772912 194.40585 41.890408 194.5772 41.97853 C 194.74855 42.065428 194.92724 42.114384 195.11327 42.1254 Z M 196.03855 36.808718 L 196.33229 36.808718 C 196.4302 36.808718 196.52322 36.813614 196.61134 36.823405 L 196.61134 42.1254 C 196.81696 42.105817 197.003 42.04462 197.16945 41.941812 C 197.3359 41.839004 197.48032 41.705597 197.60271 41.545264 C 197.7251 41.383708 197.82057 41.202568 197.88911 41.001846 C 197.95765 40.801125 197.99192 40.59306 197.99192 40.37765 C 197.99192 39.99579 197.92093 39.671452 197.77896 39.40831 C 197.63698 39.143945 197.4534 38.928537 197.2282 38.762084 L 198.28566 37.08777 C 198.78501 37.430466 199.16932 37.88209 199.43858 38.44509 C 199.70784 39.009315 199.84247 39.662885 199.84247 40.407024 C 199.84247 40.955338 199.7568 41.474277 199.58545 41.96262 C 199.4141 42.453408 199.16443 42.880554 198.83642 43.248952 C 198.50841 43.616126 198.10452 43.90497 197.62474 44.115483 C 197.14497 44.325996 196.59665 44.431253 195.9798 44.431253 C 195.38253 44.431253 194.84156 44.328444 194.35689 44.122827 C 193.87222 43.91721 193.46099 43.638157 193.12319 43.284446 C 192.78539 42.931959 192.52347 42.517052 192.33743 42.037278 C 192.1514 41.557503 192.05838 41.038564 192.05838 40.479235 C 192.05838 39.941937 192.14895 39.447476 192.33009 38.997076 C 192.51123 38.546675 192.77315 38.159919 193.11584 37.835582 C 193.45854 37.513692 193.87467 37.261566 194.36424 37.080427 C 194.8538 36.899288 195.41191 36.808718 196.03855 36.808718" stroke="lime" stroke-linecap="round" stroke-linejoin="round" stroke-width="1"/><path d="M 194.27599 30.566635 C 194.24662 30.67434 194.22704 30.779596 194.21724 30.882405 C 194.20745 30.985214 194.20256 31.085575 194.20256 31.183488 C 194.20256 31.506601 194.2613 31.777086 194.37758 31.998614 C 194.49507 32.218919 194.63705 32.393939 194.8035 32.527345 C 194.96873 32.659528 195.14987 32.75377 195.34569 32.81374 C 195.5403 32.872489 195.71042 32.900639 195.85729 32.900639 L 199.60736 32.900639 L 199.60736 35.310525 L 192.30182 35.310525 L 192.30182 32.98876 L 193.35928 32.98876 L 193.35928 32.959387 C 192.98476 32.774576 192.67878 32.51021 192.44257 32.167514 C 192.20635 31.823595 192.08763 31.42827 192.08763 30.97787 C 192.08763 30.879957 192.09253 30.784492 192.10232 30.691474 C 192.11211 30.597233 192.1268 30.522574 192.14638 30.463827 Z" stroke="lime" stroke-linecap="round" stroke-linejoin="round" stroke-width="1"/><path d="M 362.83463 510.2362 L 362.83463 634.9606 L 493.22833 634.9606 L 493.22833 510.2362 Z M 391.48467 519.28692 C 392.59167 520.39392 392.59167 522.1887 391.48467 523.2957 C 390.37767 524.4027 388.58288 524.4027 387.47588 523.2957 C 386.36888 522.1887 386.36888 520.39392 387.47588 519.28692 C 388.58288 518.17992 390.37767 518.17992 391.48467 519.28692 M 468.58707 519.28692 C 469.69407 520.39392 469.69407 522.1887 468.58707 523.2957 C 467.48007 524.4027 465.68528 524.4027 464.57828 523.2957 C 463.47128 522.1887 463.47128 520.39392 464.57828 519.28692 C 465.68528 518.17992 467.48007 518.17992 468.58707 519.28692 M 391.48467 621.90113 C 392.59167 623.00812 392.59167 624.80292 391.48467 625.9099 C 390.37767 627.01692 388.58288 627.01692 387.47588 625.9099 C 386.36888 624.80292 386.36888 623.00812 387.47588 621.90113 C 388.58288 620.79412 390.37767 620.79412 391.48467 621.90113 M 468.58707 621.90113 C 469.69407 623.00812 469.69407 624.80292 468.58707 625.9099 C 467.48007 627.01692 465.68528 627.01692 464.57828 625.9099 C 463.47128 624.80292 463.47128 623.00812 464.57828 621.90113 C 465.68528 620.79412 467.48007 620.79412 468.58707 621.90113 M 399.68502 530.0787 L 399.68502 515.90548 L 456.37793 515.90548 L 456.37793 530.0787 L 473.3858 530.0787 L 473.3858 615.11808 L 456.37793 615.11808 L 456.37793 629.2913 L 399.68502 629.2913 L 399.68502 615.11808 L 382.67714 615.11808 L 382.67714 530.0787 Z M 368.50392 530.0787 L 377.00785 530.0787 L 377.00785 558.42517 L 368.50392 558.42517 Z M 368.50392 586.77162 L 377.00785 586.77162 L 377.00785 615.11808 L 368.50392 615.11808 Z M 479.0551 530.0787 L 487.55903 530.0787 L 487.55903 558.42517 L 479.0551 558.42517 Z M 479.0551 586.77162 L 487.55903 586.77162 L 487.55903 615.11808 L 479.0551 615.11808 Z" stroke="blue" stroke-linecap="round" stroke-linejoin="round" stroke-width=".5"/><path d="M 377.00785 692.00783 L 377.00785 719.64563 L 368.50392 719.64563 L 368.50392 748.70074 L 377.00785 748.70074 L 377.00785 756.85035 L 396.85037 756.85035 L 396.85037 748.70074 L 405.3543 748.70074 L 405.3543 719.64563 L 396.85037 719.64563 L 396.85037 692.00783 L 405.3543 692.00783 L 405.3543 662.9527 L 396.85037 662.9527 L 396.85037 654.8031 L 377.00785 654.8031 L 377.00785 662.9527 L 368.50392 662.9527 L 368.50392 692.00783 Z" stroke="blue" stroke-linecap="round" stroke-linejoin="round" stroke-width=".5"/><path d="M 433.70077 692.00783 L 433.70077 719.64563 L 425.19683 719.64563 L 425.19683 748.70074 L 433.70077 748.70074 L 433.70077 756.85035 L 453.54329 756.85035 L 453.54329 748.70074 L 462.04722 748.70074 L 462.04722 719.64563 L 453.54329 719.64563 L 453.54329 692.00783 L 462.04722 692.00783 L 462.04722 662.9527 L 453.54329 662.9527 L 453.54329 654.8031 L 433.70077 654.8031 L 433.70077 662.9527 L 425.19683 662.9527 L 425.19683 692.00783 Z" stroke="blue" stroke-linecap="round" stroke-linejoin="round" stroke-width=".5"/><path d="M 355.6768 117.709026 C 359.5513 121.583516 359.5513 127.8653 355.6768 131.73979 C 351.8023 135.6143 345.52051 135.6143 341.64602 131.73979 C 337.77152 127.8653 337.77152 121.583516 341.64602 117.709026 C 345.52051 113.834516 351.8023 113.834516 355.6768 117.709026 M 277.79524 238.11023 L 277.79524 229.60624 L 306.1417 229.60624 L 306.1417 238.11023 L 334.48815 238.11023 L 334.48815 229.60624 L 362.8346 229.60624 L 362.8346 238.11023 L 391.18106 238.11023 L 391.18106 229.60624 L 419.52751 229.60624 L 419.52751 238.11023 C 443.01052 238.11025 462.04726 219.0735 462.04724 195.59049 L 453.54326 195.5905 L 453.54326 167.24404 L 462.04723 167.24404 C 462.04723 158.9696 462.04723 149.31954 462.04723 138.89758 L 453.54326 138.897584 L 453.54326 110.55113 L 462.04723 110.55113 C 462.04723 101.159764 462.04723 91.595583 462.04723 82.204665 L 453.54326 82.204674 L 453.54326 53.858217 L 462.04722 53.858217 C 462.04722 36.686211 462.04722 21.612401 462.04722 11.338582 L 419.52751 11.338582 L 419.52751 19.842473 L 391.18106 19.842473 L 391.18106 11.338582 L 362.8346 11.338582 L 362.8346 19.842473 L 334.48815 19.842473 L 334.48815 11.338582 L 306.1417 11.338582 L 306.1417 19.842473 L 277.79524 19.842473 L 277.79524 11.338582 C 254.31229 11.338605 235.27561 30.375282 235.27558 53.858222 L 243.77949 53.858217 L 243.77949 82.204674 L 235.27558 82.204674 L 235.27558 110.55113 L 243.77949 110.55113 L 243.77949 138.897584 L 235.27558 138.897584 L 235.27558 167.24404 L 243.77949 167.24404 L 243.77949 195.5905 L 235.27558 195.5905 C 235.27556 219.07348 254.31226 238.11022 277.79524 238.11023 Z" stroke="blue" stroke-linecap="round" stroke-linejoin="round" stroke-width=".5"/><line x1="26.929098" y1="642.0471" x2="114.803114" y2="642.0471" stroke="blue" stroke-linecap="round" stroke-linejoin="round" stroke-width=".5"/><line x1="120.4724" y1="642.04716" x2="208.34642" y2="642.04716" stroke="blue" stroke-linecap="round" stroke-linejoin="round" stroke-width=".5"/><line x1="26.929098" y1="630.70852" x2="114.803114" y2="630.70852" stroke="blue" stroke-linecap="round" stroke-linejoin="round" stroke-width=".5"/><line x1="120.4724" y1="630.70857" x2="208.34642" y2="630.70857" stroke="blue" stroke-linecap="round" stroke-linejoin="round" stroke-width=".5"/><line x1="26.929098" y1="619.36994" x2="114.803114" y2="619.36994" stroke="blue" stroke-linecap="round" stroke-linejoin="round" stroke-width=".5"/><line x1="120.4724" y1="619.37" x2="208.34642" y2="619.37" stroke="blue" stroke-linecap="round" stroke-linejoin="round" stroke-width=".5"/><line x1="26.929098" y1="608.03136" x2="114.803114" y2="608.03136" stroke="blue" stroke-linecap="round" stroke-linejoin="round" stroke-width=".5"/><line x1="120.4724" y1="608.0314" x2="208.34642" y2="608.0314" stroke="blue" stroke-linecap="round" stroke-linejoin="round" stroke-width=".5"/><line x1="26.929098" y1="596.69278" x2="114.803114" y2="596.69278" stroke="blue" stroke-linecap="round" stroke-linejoin="round" stroke-width=".5"/><line x1="120.4724" y1="596.69283" x2="208.34642" y2="596.69283" stroke="blue" stroke-linecap="round" stroke-linejoin="round" stroke-width=".5"/><line x1="69.44878" y1="625.03923" x2="165.82673" y2="625.03923" stroke="blue" stroke-linecap="round" stroke-linejoin="round" stroke-width=".5"/><line x1="26.929098" y1="625.03923" x2="63.779495" y2="625.03923" stroke="blue" stroke-linecap="round" stroke-linejoin="round" stroke-width=".5"/><line x1="171.49602" y1="625.03923" x2="208.34642" y2="625.03923" stroke="blue" stroke-linecap="round" stroke-linejoin="round" stroke-width=".5"/><line x1="69.44878" y1="636.3778" x2="165.82673" y2="636.3778" stroke="blue" stroke-linecap="round" stroke-linejoin="round" stroke-width=".5"/><line x1="26.929098" y1="636.3778" x2="63.779495" y2="636.3778" stroke="blue" stroke-linecap="round" stroke-linejoin="round" stroke-width=".5"/><line x1="171.49602" y1="636.3778" x2="208.34642" y2="636.3778" stroke="blue" stroke-linecap="round" stroke-linejoin="round" stroke-width=".5"/><line x1="69.44878" y1="613.70065" x2="165.82673" y2="613.70065" stroke="blue" stroke-linecap="round" stroke-linejoin="round" stroke-width=".5"/><line x1="26.929098" y1="613.70065" x2="63.779495" y2="613.70065" stroke="blue" stroke-linecap="round" stroke-linejoin="round" stroke-width=".5"/><line x1="171.49602" y1="613.70065" x2="208.34642" y2="613.70065" stroke="blue" stroke-linecap="round" stroke-linejoin="round" stroke-width=".5"/><line x1="69.44878" y1="602.36207" x2="165.82673" y2="602.36207" stroke="blue" stroke-linecap="round" stroke-linejoin="round" stroke-width=".5"/><line x1="26.929098" y1="602.36207" x2="63.779495" y2="602.36207" stroke="blue" stroke-linecap="round" stroke-linejoin="round" stroke-width=".5"/><line x1="171.49602" y1="602.36207" x2="208.34642" y2="602.36207" stroke="blue" stroke-linecap="round" stroke-linejoin="round" stroke-width=".5"/><line x1="69.44878" y1="591.0235" x2="165.82673" y2="591.0235" stroke="blue" stroke-linecap="round" stroke-linejoin="round" stroke-width=".5"/><line x1="26.929098" y1="591.0235" x2="63.779495" y2="591.0235" stroke="blue" stroke-linecap="round" stroke-linejoin="round" stroke-width=".5"/><line x1="171.49602" y1="591.0235" x2="208.34642" y2="591.0235" stroke="blue" stroke-linecap="round" stroke-linejoin="round" stroke-width=".5"/><path d="M 306.1417 283.46448 L 391.18106 283.46448 L 391.18106 453.54322 L 306.1417 453.54322 Z M 277.79524 481.88974 L 277.79524 473.38573 L 306.1417 473.38573 L 306.1417 481.88974 L 334.48815 481.88974 L 334.48815 473.38573 L 362.8346 473.38573 L 362.8346 481.88974 L 391.18106 481.88974 L 391.18106 473.38573 L 419.52751 473.38573 L 419.52751 481.88974 C 443.01053 481.88975 462.04727 462.853 462.04724 439.36998 L 453.54326 439.36998 L 453.54326 411.02353 L 462.04723 411.02353 C 462.04723 402.74908 462.04723 393.09903 462.04723 382.67707 L 453.54326 382.67707 L 453.54326 354.33062 L 462.04723 354.33062 C 462.04723 344.93925 462.04723 335.37507 462.04723 325.98415 L 453.54326 325.98416 L 453.54326 297.6377 L 462.04722 297.6377 C 462.04722 280.4657 462.04722 265.3919 462.04722 255.11808 L 419.52751 255.11808 L 419.52751 263.62196 L 405.35429 263.62196 L 405.35429 255.11808 L 291.96846 255.11808 L 291.96846 263.62196 L 277.79524 263.62196 L 277.79524 255.11808 C 254.3123 255.1181 235.27562 274.15478 235.27558 297.63771 L 243.77949 297.6377 L 243.77949 325.98416 L 235.27558 325.98416 L 235.27558 354.33062 L 243.77949 354.33062 L 243.77949 382.67707 L 235.27558 382.67707 L 235.27558 411.02353 L 243.77949 411.02353 L 243.77949 439.36998 L 235.27558 439.36998 C 235.27555 462.85298 254.31226 481.88972 277.79524 481.88974 Z" stroke="blue" stroke-linecap="round" stroke-linejoin="round" stroke-width=".5"/><path d="M 249.44878 725.66923 C 249.44879 736.55095 253.60005 747.43267 261.90257 755.73515 C 278.50752 772.3402 305.42946 772.3402 322.03441 755.73515 C 330.33694 747.43267 334.4882 736.55095 334.4882 725.66922 L 348.6614 725.66923 L 348.6614 507.4015 L 235.27558 507.4015 L 235.27558 725.66923 Z M 263.62202 725.66923 L 320.31496 725.66923 C 320.31496 732.9237 317.54745 740.1782 312.01244 745.71318 C 300.94247 756.7832 282.99451 756.7832 271.92454 745.71318 C 266.38953 740.1782 263.62202 732.9237 263.62202 725.66923 Z" stroke="blue" stroke-linecap="round" stroke-linejoin="round" stroke-width=".5"/><line x1="26.929098" y1="446.45656" x2="114.803114" y2="446.45656" stroke="blue" stroke-linecap="round" stroke-linejoin="round" stroke-width=".5"/><line x1="120.4724" y1="446.45662" x2="208.34642" y2="446.45662" stroke="blue" stroke-linecap="round" stroke-linejoin="round" stroke-width=".5"/><line x1="26.929098" y1="435.11798" x2="114.803114" y2="435.11798" stroke="blue" stroke-linecap="round" stroke-linejoin="round" stroke-width=".5"/><line x1="120.4724" y1="435.11803" x2="208.34642" y2="435.11803" stroke="blue" stroke-linecap="round" stroke-linejoin="round" stroke-width=".5"/><line x1="26.929098" y1="423.7794" x2="114.803114" y2="423.7794" stroke="blue" stroke-linecap="round" stroke-linejoin="round" stroke-width=".5"/><line x1="120.4724" y1="423.77945" x2="208.34642" y2="423.77945" stroke="blue" stroke-linecap="round" stroke-linejoin="round" stroke-width=".5"/><line x1="26.929098" y1="412.44082" x2="114.803114" y2="412.44082" stroke="blue" stroke-linecap="round" stroke-linejoin="round" stroke-width=".5"/><line x1="120.4724" y1="412.44087" x2="208.34642" y2="412.44087" stroke="blue" stroke-linecap="round" stroke-linejoin="round" stroke-width=".5"/><line x1="26.929098" y1="401.10224" x2="114.803114" y2="401.10224" stroke="blue" stroke-linecap="round" stroke-linejoin="round" stroke-width=".5"/><line x1="120.4724" y1="401.1023" x2="208.34642" y2="401.1023" stroke="blue" stroke-linecap="round" stroke-linejoin="round" stroke-width=".5"/><line x1="69.44878" y1="429.4487" x2="165.82673" y2="429.4487" stroke="blue" stroke-linecap="round" stroke-linejoin="round" stroke-width=".5"/><line x1="26.929098" y1="429.4487" x2="63.779495" y2="429.4487" stroke="blue" stroke-linecap="round" stroke-linejoin="round" stroke-width=".5"/><line x1="171.49602" y1="429.4487" x2="208.34642" y2="429.4487" stroke="blue" stroke-linecap="round" stroke-linejoin="round" stroke-width=".5"/><line x1="69.44878" y1="440.78727" x2="165.82673" y2="440.78727" stroke="blue" stroke-linecap="round" stroke-linejoin="round" stroke-width=".5"/><line x1="26.929098" y1="440.78727" x2="63.779495" y2="440.78727" stroke="blue" stroke-linecap="round" stroke-linejoin="round" stroke-width=".5"/><line x1="171.49602" y1="440.78727" x2="208.34642" y2="440.78727" stroke="blue" stroke-linecap="round" stroke-linejoin="round" stroke-width=".5"/><line x1="69.44878" y1="418.1101" x2="165.82673" y2="418.1101" stroke="blue" stroke-linecap="round" stroke-linejoin="round" stroke-width=".5"/><line x1="26.929098" y1="418.1101" x2="63.779495" y2="418.1101" stroke="blue" stroke-linecap="round" stroke-linejoin="round" stroke-width=".5"/><line x1="171.49602" y1="418.1101" x2="208.34642" y2="418.1101" stroke="blue" stroke-linecap="round" stroke-linejoin="round" stroke-width=".5"/><line x1="69.44878" y1="406.77153" x2="165.82673" y2="406.77153" stroke="blue" stroke-linecap="round" stroke-linejoin="round" stroke-width=".5"/><line x1="26.929098" y1="406.77153" x2="63.779495" y2="406.77153" stroke="blue" stroke-linecap="round" stroke-linejoin="round" stroke-width=".5"/><line x1="171.49602" y1="406.77153" x2="208.34642" y2="406.77153" stroke="blue" stroke-linecap="round" stroke-linejoin="round" stroke-width=".5"/><line x1="69.44878" y1="395.43295" x2="165.82673" y2="395.43295" stroke="blue" stroke-linecap="round" stroke-linejoin="round" stroke-width=".5"/><line x1="26.929098" y1="395.43295" x2="63.779495" y2="395.43295" stroke="blue" stroke-linecap="round" stroke-linejoin="round" stroke-width=".5"/><line x1="171.49602" y1="395.43295" x2="208.34642" y2="395.43295" stroke="blue" stroke-linecap="round" stroke-linejoin="round" stroke-width=".5"/><line x1="26.929098" y1="250.86602" x2="114.803114" y2="250.86602" stroke="blue" stroke-linecap="round" stroke-linejoin="round" stroke-width=".5"/><line x1="120.4724" y1="250.86608" x2="208.34642" y2="250.86608" stroke="blue" stroke-linecap="round" stroke-linejoin="round" stroke-width=".5"/><line x1="26.929098" y1="239.52744" x2="114.803114" y2="239.52744" stroke="blue" stroke-linecap="round" stroke-linejoin="round" stroke-width=".5"/><line x1="120.4724" y1="239.5275" x2="208.34642" y2="239.5275" stroke="blue" stroke-linecap="round" stroke-linejoin="round" stroke-width=".5"/><line x1="26.929098" y1="228.18886" x2="114.803114" y2="228.18886" stroke="blue" stroke-linecap="round" stroke-linejoin="round" stroke-width=".5"/><line x1="120.4724" y1="228.18891" x2="208.34642" y2="228.18891" stroke="blue" stroke-linecap="round" stroke-linejoin="round" stroke-width=".5"/><line x1="26.929098" y1="216.85028" x2="114.803114" y2="216.85028" stroke="blue" stroke-linecap="round" stroke-linejoin="round" stroke-width=".5"/><line x1="120.4724" y1="216.85033" x2="208.34642" y2="216.85033" stroke="blue" stroke-linecap="round" stroke-linejoin="round" stroke-width=".5"/><line x1="26.929098" y1="205.5117" x2="114.803114" y2="205.5117" stroke="blue" stroke-linecap="round" stroke-linejoin="round" stroke-width=".5"/><line x1="120.4724" y1="205.51175" x2="208.34642" y2="205.51175" stroke="blue" stroke-linecap="round" stroke-linejoin="round" stroke-width=".5"/><line x1="69.44878" y1="233.85815" x2="165.82673" y2="233.85815" stroke="blue" stroke-linecap="round" stroke-linejoin="round" stroke-width=".5"/><line x1="26.929098" y1="233.85815" x2="63.779495" y2="233.85815" stroke="blue" stroke-linecap="round" stroke-linejoin="round" stroke-width=".5"/><line x1="171.49602" y1="233.85815" x2="208.34642" y2="233.85815" stroke="blue" stroke-linecap="round" stroke-linejoin="round" stroke-width=".5"/><line x1="69.44878" y1="245.19673" x2="165.82673" y2="245.19673" stroke="blue" stroke-linecap="round" stroke-linejoin="round" stroke-width=".5"/><line x1="26.929098" y1="245.19673" x2="63.779495" y2="245.19673" stroke="blue" stroke-linecap="round" stroke-linejoin="round" stroke-width=".5"/><line x1="171.49602" y1="245.19673" x2="208.34642" y2="245.19673" stroke="blue" stroke-linecap="round" stroke-linejoin="round" stroke-width=".5"/><line x1="69.44878" y1="222.51957" x2="165.82673" y2="222.51957" stroke="blue" stroke-linecap="round" stroke-linejoin="round" stroke-width=".5"/><line x1="26.929098" y1="222.51957" x2="63.779495" y2="222.51957" stroke="blue" stroke-linecap="round" stroke-linejoin="round" stroke-width=".5"/><line x1="171.49602" y1="222.51957" x2="208.34642" y2="222.51957" stroke="blue" stroke-linecap="round" stroke-linejoin="round" stroke-width=".5"/><line x1="69.44878" y1="211.18099" x2="165.82673" y2="211.18099" stroke="blue" stroke-linecap="round" stroke-linejoin="round" stroke-width=".5"/><line x1="26.929098" y1="211.18099" x2="63.779495" y2="211.18099" stroke="blue" stroke-linecap="round" stroke-linejoin="round" stroke-width=".5"/><line x1="171.49602" y1="211.18099" x2="208.34642" y2="211.18099" stroke="blue" stroke-linecap="round" stroke-linejoin="round" stroke-width=".5"/><line x1="69.44878" y1="199.8424" x2="165.82673" y2="199.8424" stroke="blue" stroke-linecap="round" stroke-linejoin="round" stroke-width=".5"/><line x1="26.929098" y1="199.8424" x2="63.779495" y2="199.8424" stroke="blue" stroke-linecap="round" stroke-linejoin="round" stroke-width=".5"/><line x1="171.49602" y1="199.8424" x2="208.34642" y2="199.8424" stroke="blue" stroke-linecap="round" stroke-linejoin="round" stroke-width=".5"/></g></g></svg>
