<?xml version="1.0" encoding="utf-8" standalone="no"?>
<!DOCTYPE svg PUBLIC "-//W3C//DTD SVG 1.1//EN" "http://www.w3.org/Graphics/SVG/1.1/DTD/svg11.dtd">
<svg xmlns="http://www.w3.org/2000/svg" xmlns:xl="http://www.w3.org/1999/xlink" version="1.1" viewBox="0 0 1686.6142 694.4882" width="1686.6142pt" height="694.4882pt" xmlns:dc="http://purl.org/dc/elements/1.1/"><metadata> Produced by OmniGraffle 6.2.1 <dc:date>2015-04-15 17:02:34 +0000</dc:date></metadata><defs/><g stroke="none" stroke-opacity="1" stroke-dasharray="none" fill="none" fill-opacity="1"><title>print</title><g><title>Layer 1</title><path d="M 177.09411 392.66963 C 180.96862 396.54412 180.96862 402.8259 177.09411 406.7004 C 173.21962 410.5749 166.93784 410.5749 163.06335 406.7004 C 159.18884 402.8259 159.18884 396.54412 163.06335 392.66963 C 166.93784 388.79512 173.21962 388.79512 177.09411 392.66963 M 99.2126 541.4173 L 99.2126 532.91335 L 127.55906 532.91335 L 127.55906 541.4173 L 155.90551 541.4173 L 155.90551 532.91335 L 184.25197 532.91335 L 184.25197 541.4173 L 212.59842 541.4173 L 212.59842 532.91335 L 240.94487 532.91335 L 240.94487 541.4173 C 240.9556 541.4173 240.96633 541.4173 240.97706 541.4173 L 243.77951 541.4173 L 243.77951 541.36164 C 280.66342 539.9107 310.30443 510.2697 311.75535 473.38578 L 311.811 473.3858 L 311.811 470.55115 L 311.811 470.55115 L 303.30708 470.55115 L 303.30708 442.2047 L 311.811 442.2047 L 311.811 428.03146 L 311.811 413.85824 L 303.30708 413.85824 L 303.30708 385.51178 L 311.811 385.51178 L 311.811 357.16533 L 303.30708 357.16533 L 303.30708 328.81887 L 311.811 328.81887 L 311.811 325.98423 L 311.811 300.47242 L 303.30707 300.47242 L 303.30707 266.45667 L 269.29132 266.45667 L 269.29132 257.95273 L 240.94487 257.95273 L 240.94487 266.45667 L 212.59842 266.45667 L 212.59842 257.95273 L 184.25197 257.95273 L 184.25197 266.45667 L 155.90551 266.45667 L 155.90551 257.95273 L 127.55906 257.95273 L 127.55906 266.45667 L 99.2126 266.45667 L 99.2126 257.95273 L 99.21259 257.95273 L 96.37795 257.95273 L 96.37795 258.00839 C 59.494043 259.45932 29.85303 289.10033 28.402105 325.98423 L 28.402105 325.98423 L 28.346455 325.98423 L 28.346455 328.7867 C 28.34645 328.79742 28.346448 328.80815 28.346448 328.81888 L 36.850398 328.81887 L 36.850398 357.16533 L 28.346455 357.16533 L 28.346455 385.51178 L 36.850398 385.51178 L 36.850398 413.85824 L 28.346455 413.85824 L 28.346455 442.2047 L 36.850398 442.2047 L 36.850398 470.55115 L 28.346455 470.55115 C 28.346448 470.56188 28.34645 470.5726 28.346455 470.58334 L 28.346455 473.3858 L 28.402105 473.3858 C 29.81567 509.3199 57.986163 538.37933 93.54331 541.19382 L 93.5433 541.4173 L 99.18041 541.4173 C 99.191136 541.4173 99.20186 541.4173 99.21259 541.4173 L 99.21259 541.4173 Z M 28.346455 470.55115 L 28.346455 470.55115 L 28.346448 470.55115 C 28.346448 470.55115 28.346448 470.55115 28.346448 470.55115 Z" stroke="blue" stroke-linecap="round" stroke-linejoin="round" stroke-width=".5"/><path d="M 830.55113 260.78739 L 830.55113 385.5118 L 960.94483 385.5118 L 960.94483 260.78739 Z M 859.2012 269.83811 C 860.3082 270.94511 860.3082 272.7399 859.2012 273.8469 C 858.0942 274.9539 856.2994 274.9539 855.1924 273.8469 C 854.0854 272.7399 854.0854 270.94511 855.1924 269.83811 C 856.2994 268.73111 858.0942 268.73111 859.2012 269.83811 M 936.3036 269.83811 C 937.4106 270.94511 937.4106 272.7399 936.3036 273.8469 C 935.1966 274.9539 933.4018 274.9539 932.2948 273.8469 C 931.1878 272.7399 931.1878 270.94511 932.2948 269.83811 C 933.4018 268.73111 935.1966 268.73111 936.3036 269.83811 M 859.2012 372.45232 C 860.3082 373.55932 860.3082 375.35411 859.2012 376.46111 C 858.0942 377.56811 856.2994 377.56811 855.1924 376.46111 C 854.0854 375.35411 854.0854 373.55932 855.1924 372.45232 C 856.2994 371.34532 858.0942 371.34532 859.2012 372.45232 M 936.3036 372.45232 C 937.4106 373.55932 937.4106 375.35411 936.3036 376.46111 C 935.1966 377.56811 933.4018 377.56811 932.2948 376.46111 C 931.1878 375.35411 931.1878 373.55932 932.2948 372.45232 C 933.4018 371.34532 935.1966 371.34532 936.3036 372.45232 M 867.40153 280.6299 L 867.40153 266.45668 L 924.09444 266.45668 L 924.09444 280.6299 L 941.1023 280.6299 L 941.1023 365.66928 L 924.09444 365.66928 L 924.09444 379.8425 L 867.40153 379.8425 L 867.40153 365.66928 L 850.39365 365.66928 L 850.39365 280.6299 Z M 836.22043 280.6299 L 844.72436 280.6299 L 844.72436 308.97636 L 836.22043 308.97636 Z M 836.22043 337.32282 L 844.72436 337.32282 L 844.72436 365.66928 L 836.22043 365.66928 Z M 946.7716 280.6299 L 955.27554 280.6299 L 955.27554 308.97636 L 946.7716 308.97636 Z M 946.7716 337.32282 L 955.27554 337.32282 L 955.27554 365.66928 L 946.7716 365.66928 Z" stroke="blue" stroke-linecap="round" stroke-linejoin="round" stroke-width=".5"/><path d="M 915.5905 450.70866 L 915.5905 479.05512 L 907.08657 479.05512 L 907.08657 507.40158 L 915.5905 507.40158 L 915.5905 515.9055 L 935.433 515.9055 L 935.433 507.40158 L 943.93696 507.40158 L 943.93696 479.05512 L 935.433 479.05512 L 935.433 450.70866 L 943.93696 450.70866 L 943.93696 422.3622 L 935.433 422.3622 L 935.433 413.85825 L 915.5905 413.85825 L 915.5905 422.3622 L 907.08657 422.3622 L 907.08657 450.70866 Z" stroke="blue" stroke-linecap="round" stroke-linejoin="round" stroke-width=".5"/><path d="M 683.1495 530.07872 C 683.1495 540.96045 687.3008 551.84217 695.6033 560.14465 C 712.20826 576.7497 739.1302 576.7497 755.73515 560.14465 C 764.03767 551.84217 768.18893 540.96044 768.18893 530.07872 L 796.5354 530.07872 L 796.5354 255.1181 L 654.8031 255.1181 L 654.8031 530.07872 Z M 697.32275 530.07872 L 754.0157 530.07872 C 754.0157 537.3332 751.2482 544.5877 745.71317 550.12267 C 734.6432 561.1927 716.69525 561.1927 705.62528 550.12267 C 700.09026 544.5877 697.32275 537.3332 697.32275 530.07872 Z" stroke="blue" stroke-linecap="round" stroke-linejoin="round" stroke-width=".5"/><path d="M 439.37005 289.13383 L 552.75587 289.13383 L 552.75587 515.90548 L 439.37005 515.90548 Z M 411.02361 541.4173 L 411.02361 532.91335 L 439.37007 532.91335 L 439.37007 541.4173 L 467.71652 541.4173 L 467.71652 532.91335 L 496.06298 532.91335 L 496.06298 541.4173 L 524.40943 541.4173 L 524.40943 532.91335 L 552.7559 532.91335 L 552.7559 541.4173 C 552.76662 541.4173 552.77734 541.4173 552.78807 541.4173 L 555.59053 541.4173 L 555.59053 541.36164 C 592.47443 539.9107 622.11544 510.2697 623.56636 473.38578 L 623.62202 473.3858 L 623.62202 470.55115 L 623.62202 470.55115 L 615.1181 470.55115 L 615.1181 442.2047 L 623.62202 442.2047 L 623.62202 428.03146 L 623.62202 413.85824 L 615.1181 413.85824 L 615.1181 385.51178 L 623.62202 385.51178 L 623.62202 357.16533 L 615.1181 357.16533 L 615.1181 328.81887 L 623.62202 328.81887 L 623.62202 325.98423 L 623.62202 300.47242 L 615.1181 300.47242 L 615.1181 266.45667 L 595.27556 266.45667 L 595.27556 257.95273 L 581.10233 257.95273 L 581.10233 266.45667 L 566.9291 266.45667 L 566.9291 257.95273 L 425.19683 257.95273 L 425.19683 266.45667 L 411.02361 266.45667 L 411.02361 257.95273 L 411.0236 257.95273 L 408.18896 257.95273 L 408.18896 258.00839 C 371.30506 259.45932 341.66404 289.10033 340.21312 325.98423 L 340.21312 325.98423 L 340.15747 325.98423 L 340.15747 328.7867 C 340.15746 328.79742 340.15746 328.80815 340.15746 328.81888 L 348.66141 328.81887 L 348.66141 357.16533 L 340.15747 357.16533 L 340.15747 385.51178 L 348.66141 385.51178 L 348.66141 413.85824 L 340.15747 413.85824 L 340.15747 442.2047 L 348.66141 442.2047 L 348.66141 470.55115 L 340.15747 470.55115 C 340.15746 470.56188 340.15746 470.5726 340.15747 470.58334 L 340.15747 473.3858 L 340.21312 473.3858 C 341.62668 509.3199 369.79718 538.37933 405.35432 541.19382 L 405.35432 541.4173 L 410.99142 541.4173 C 411.00215 541.4173 411.01288 541.4173 411.0236 541.4173 L 411.0236 541.4173 Z M 340.15747 470.55115 L 340.15747 470.55115 L 340.15746 470.55115 C 340.15746 470.55115 340.15746 470.55115 340.15746 470.55115 Z" stroke="blue" stroke-linecap="round" stroke-linejoin="round" stroke-width=".5"/><path d="M 850.39365 447.874 L 850.39365 476.22047 L 841.8897 476.22047 L 841.8897 504.56692 L 850.39365 504.56692 L 850.39365 513.07084 L 870.23617 513.07084 L 870.23617 504.56692 L 878.7401 504.56692 L 878.7401 476.22047 L 870.23617 476.22047 L 870.23617 447.874 L 878.7401 447.874 L 878.7401 419.52755 L 870.23617 419.52755 L 870.23617 411.0236 L 850.39365 411.0236 L 850.39365 419.52755 L 841.8897 419.52755 L 841.8897 447.874 Z" stroke="blue" stroke-linecap="round" stroke-linejoin="round" stroke-width=".5"/><path d="M 606.6142 82.20476 L 697.32286 82.20476 L 697.32286 172.91342 L 606.6142 172.91342 Z M 592.44097 85.039404 L 600.9449 85.039404 L 600.9449 113.38586 L 592.44097 113.38586 Z M 592.44097 141.73232 L 600.9449 141.73232 L 600.9449 170.07877 L 592.44097 170.07877 Z M 702.99215 85.039404 L 711.4961 85.039404 L 711.4961 113.38586 L 702.99215 113.38586 Z M 702.99215 141.73232 L 711.4961 141.73232 L 711.4961 170.07877 L 702.99215 170.07877 Z M 147.745515 172.56953 C 151.06652 175.89052 151.06652 181.27491 147.745515 184.5959 C 144.42452 187.91691 139.04014 187.91691 135.719145 184.5959 C 132.39814 181.27491 132.39814 175.89052 135.719145 172.56953 C 139.04014 169.24852 144.42452 169.24852 147.745515 172.56953 M 145.74107 151.89676 C 147.95508 154.110755 147.95508 157.70035 145.74107 159.91434 C 143.52708 162.12835 139.93749 162.12835 137.72349 159.91434 C 135.50949 157.70035 135.50949 154.110755 137.72349 151.89676 C 139.93749 149.682755 143.52708 149.682755 145.74107 151.89676 M 85.03937 226.77172 L 85.03937 208.34646 L 226.77164 208.34646 L 226.77164 226.77172 L 240.94492 226.77172 L 240.94492 218.2677 L 340.15746 218.2677 L 340.15746 226.77172 L 368.50392 226.77172 L 368.50392 218.2677 L 396.85038 218.2677 L 396.85038 226.77172 L 425.19683 226.77172 L 425.19683 218.2677 L 453.54328 218.2677 L 453.54328 226.77172 L 481.88974 226.77172 L 481.88974 218.2677 L 581.10228 218.2677 L 581.10228 226.77172 L 609.4488 226.77172 L 609.4488 218.2677 L 637.79524 218.2677 L 637.79524 226.77172 L 666.1417 226.77172 L 666.1417 218.2677 L 694.48815 218.2677 L 694.48815 226.77172 L 722.8346 226.77172 L 722.8346 218.2677 L 822.04715 218.2677 L 822.04715 226.77172 L 850.39365 226.77172 L 850.39365 218.2677 L 878.7401 218.2677 L 878.7401 226.77172 L 907.08656 226.77172 L 907.08656 218.2677 L 935.433 218.2677 L 935.433 226.77172 L 963.7795 226.77172 L 963.7795 218.2677 L 992.12593 218.2677 L 992.12593 226.77172 L 1034.6456 226.77172 L 1034.6456 198.42519 L 1026.1417 198.42519 L 1026.1417 170.07873 L 1034.6456 170.07873 L 1034.6456 141.732275 L 1026.1417 141.732275 L 1026.1417 113.38582 L 1034.6456 113.38582 L 1034.6456 85.039365 L 1026.1417 85.039365 L 1026.1417 56.69291 L 1034.6456 56.69291 L 1034.6456 28.346455 L 992.1259 28.346455 L 992.1259 36.850393 L 963.77947 36.850393 L 963.77947 28.346455 L 935.433 28.346455 L 935.433 36.850393 L 907.08656 36.850393 L 907.08656 28.346455 L 878.7401 28.346455 L 878.7401 36.850393 L 850.39365 36.850393 L 850.39365 28.346455 L 822.0472 28.346455 L 822.0472 36.850393 L 722.8346 36.850393 L 722.8346 28.346455 L 694.48815 28.346455 L 694.48815 36.850393 L 666.1417 36.850393 L 666.1417 28.346455 L 637.79524 28.346455 L 637.79524 36.850393 L 609.4488 36.850393 L 609.4488 28.346455 L 581.10233 28.346455 L 581.10233 36.850393 L 575.43305 36.850393 L 547.0866 36.850393 L 481.88974 36.850393 L 481.88974 28.346455 L 453.54328 28.346455 L 453.54328 36.850393 L 425.19682 36.850393 L 425.19682 28.346455 L 396.85037 28.346455 L 396.85037 36.850393 L 368.50392 36.850393 L 368.50392 28.346455 L 340.15752 28.346455 L 340.15752 36.850393 L 240.94492 36.850393 L 240.94492 28.346455 L 212.59841 28.346455 L 212.59841 36.850393 L 184.25196 36.850393 L 184.25196 28.346455 L 155.90551 28.346455 L 155.90551 36.850393 L 127.55905 36.850393 L 127.55905 28.346455 L 99.212595 28.346455 L 99.212595 36.850393 L 70.866138 36.850393 L 70.866138 28.346455 L 36.850392 28.346455 L 36.850392 56.69291 L 28.346462 56.69291 L 28.346462 85.039365 L 36.850392 85.039365 L 36.850392 113.38582 L 28.346462 113.38582 L 28.346462 141.732275 L 36.850392 141.732275 L 36.850392 170.07873 L 28.346462 170.07873 L 28.346462 198.42519 L 36.850392 198.42519 L 36.850392 226.77172 L 56.692952 226.77172 L 56.692952 218.2677 L 70.866173 218.2677 L 70.866173 226.77172 Z" stroke="blue" stroke-linecap="round" stroke-linejoin="round" stroke-width=".5"/><path d="M 917.83754 201.53888 C 917.6417 201.35285 917.4116 201.19619 917.14726 201.0689 C 916.8829 200.94161 916.60384 200.87797 916.3101 200.87797 C 916.0849 200.87797 915.87683 200.92203 915.6859 201.01015 C 915.495 201.09827 915.3995 201.25004 915.3995 201.46545 C 915.3995 201.67107 915.50476 201.81794 915.7153 201.90606 C 915.9258 201.99418 916.26604 202.09209 916.736 202.1998 C 917.0102 202.25854 917.2868 202.34177 917.56584 202.44948 C 917.8449 202.55718 918.097 202.69915 918.3222 202.8754 C 918.5474 203.05164 918.72855 203.26705 918.86563 203.52162 C 919.0027 203.7762 919.07125 204.07973 919.07125 204.43222 C 919.07125 204.89241 918.97823 205.28161 918.7922 205.59983 C 918.60616 205.91805 918.3638 206.17507 918.0652 206.3709 C 917.76656 206.56672 917.4312 206.7087 917.05913 206.79682 C 916.68707 206.88494 916.315 206.929 915.9429 206.929 C 915.34566 206.929 914.7606 206.83353 914.18783 206.6426 C 913.61504 206.45167 913.1377 206.17017 912.75585 205.7981 L 914.10705 204.37347 C 914.32246 204.60846 914.58683 204.80429 914.90015 204.96095 C 915.2135 205.11761 915.5464 205.19594 915.89886 205.19594 C 916.0947 205.19594 916.28807 205.14943 916.479 205.05641 C 916.66993 204.9634 916.7654 204.79939 916.7654 204.5644 C 916.7654 204.3392 916.6479 204.17275 916.4129 204.06504 C 916.1779 203.95734 915.81074 203.84474 915.3114 203.72724 C 915.0568 203.66849 914.80224 203.59016 914.54766 203.49225 C 914.2931 203.39434 914.0642 203.26215 913.8647 203.0957 C 913.664 202.92925 913.5 202.72363 913.3727 202.47885 C 913.2454 202.23407 913.1818 201.94033 913.1818 201.59763 C 913.1818 201.15702 913.2748 200.7825 913.46083 200.47408 C 913.64686 200.16565 913.88675 199.91353 914.1805 199.7177 C 914.47423 199.52187 914.7998 199.37745 915.1572 199.28443 C 915.51456 199.19142 915.8695 199.14491 916.222 199.14491 C 916.7703 199.14491 917.30637 199.23058 917.8302 199.40193 C 918.35404 199.57328 918.7971 199.8303 919.15937 200.173 Z" stroke="lime" stroke-linecap="round" stroke-linejoin="round" stroke-width="1"/><path d="M 923.0804 201.17134 L 923.0804 203.97288 C 923.0804 204.3168 923.1465 204.57505 923.2787 204.7464 C 923.4109 204.91897 923.6483 205.00464 923.991 205.00464 C 924.1085 205.00464 924.23335 204.99607 924.36553 204.97527 C 924.4977 204.95568 924.60787 204.92631 924.696 204.88714 L 924.72536 206.64958 C 924.5589 206.70833 924.3484 206.75973 924.0938 206.80379 C 923.83925 206.84785 923.5847 206.86988 923.3301 206.86988 C 922.84054 206.86988 922.4293 206.80869 922.0964 206.6863 C 921.7635 206.56391 921.4967 206.38644 921.29596 206.15634 C 921.09524 205.92502 920.9508 205.65087 920.8627 205.33143 C 920.77457 205.01198 920.7305 204.65705 920.7305 204.26417 L 920.7305 201.17134 L 919.55555 201.17134 L 919.55555 199.37953 L 920.7158 199.37953 L 920.7158 197.45554 L 923.0804 197.45554 L 923.0804 199.37953 L 924.7988 199.37953 L 924.7988 201.17134 Z" stroke="lime" stroke-linecap="round" stroke-linejoin="round" stroke-width="1"/><path d="M 930.9671 202.19992 C 930.9671 201.81806 930.84714 201.49005 930.60725 201.21589 C 930.36736 200.94174 930.00753 200.80466 929.52776 200.80466 C 929.29277 200.80466 929.07736 200.84138 928.88153 200.91481 C 928.6857 200.98824 928.51436 201.0886 928.3675 201.21589 C 928.2206 201.34318 928.1031 201.4925 928.015 201.66385 C 927.9269 201.83519 927.8779 202.01388 927.86813 202.19992 Z M 933.1848 203.1252 L 933.1848 203.41894 C 933.1848 203.51685 933.1799 203.60987 933.1701 203.69799 L 927.86813 203.69799 C 927.8877 203.90361 927.9489 204.08964 928.0517 204.2561 C 928.1545 204.42255 928.2867 204.56697 928.44826 204.68936 C 928.6098 204.81175 928.79096 204.90722 928.9917 204.97576 C 929.1924 205.0443 929.40047 205.07856 929.6159 205.07856 C 929.99774 205.07856 930.32085 205.00758 930.5852 204.8656 C 930.8496 204.72363 931.065 204.54004 931.23144 204.31484 L 932.90576 205.3723 C 932.56306 205.87166 932.1102 206.25597 931.5472 206.52523 C 930.9842 206.79449 930.33064 206.92912 929.5865 206.92912 C 929.0382 206.92912 928.51925 206.84345 928.0297 206.6721 C 927.5401 206.50075 927.11175 206.25107 926.7446 205.92307 C 926.3774 205.59506 926.08856 205.19116 925.87805 204.71139 C 925.66753 204.23162 925.5623 203.6833 925.5623 203.06645 C 925.5623 202.46918 925.6651 201.92821 925.8707 201.44354 C 926.0763 200.95887 926.35537 200.54764 926.70786 200.20984 C 927.06035 199.87204 927.4765 199.61012 927.95625 199.42408 C 928.436 199.23805 928.95496 199.14503 929.51307 199.14503 C 930.0516 199.14503 930.54605 199.2356 930.99645 199.41674 C 931.44685 199.59788 931.8336 199.8598 932.1567 200.20249 C 932.47984 200.54519 932.73196 200.96132 932.9131 201.45088 C 933.09424 201.94045 933.1848 202.49855 933.1848 203.1252" stroke="lime" stroke-linecap="round" stroke-linejoin="round" stroke-width="1"/><path d="M 939.4269 201.36264 C 939.3192 201.33327 939.21393 201.31368 939.1111 201.30389 C 939.0083 201.2941 938.90795 201.2892 938.81004 201.2892 C 938.4869 201.2892 938.2152 201.34795 937.9949 201.46422 C 937.7746 201.58172 937.59837 201.7237 937.4662 201.89015 C 937.334 202.05538 937.23854 202.23651 937.1798 202.43234 C 937.12104 202.62694 937.09167 202.79707 937.09167 202.94394 L 937.09167 206.69401 L 934.683 206.69401 L 934.683 199.38847 L 937.00354 199.38847 L 937.00354 200.44593 L 937.0329 200.44593 C 937.21895 200.07141 937.4833 199.76543 937.826 199.52922 C 938.1687 199.293 938.56526 199.17428 939.01566 199.17428 C 939.11357 199.17428 939.20904 199.17918 939.30205 199.18897 C 939.39507 199.19876 939.47095 199.21345 939.5297 199.23303 Z" stroke="lime" stroke-linecap="round" stroke-linejoin="round" stroke-width="1"/><path d="M 945.30143 206.69389 L 945.30143 202.69903 C 945.30143 202.49341 945.2843 202.29759 945.25125 202.11155 C 945.21576 201.92552 945.1607 201.76151 945.08113 201.61954 C 945.0028 201.47757 944.89265 201.36497 944.7519 201.28174 C 944.6087 201.19851 944.4288 201.1569 944.2134 201.1569 C 943.9992 201.1569 943.8095 201.19851 943.64915 201.28174 C 943.4876 201.36497 943.35296 201.48001 943.24526 201.62688 C 943.13756 201.77375 943.0568 201.94265 943.0029 202.13358 C 942.9491 202.32451 942.92215 202.52279 942.92215 202.7284 L 942.92215 206.69389 L 940.4988 206.69389 L 940.4988 199.37978 L 942.834 199.37978 L 942.834 200.39318 L 942.8634 200.39318 C 942.9515 200.23652 943.06657 200.0823 943.20854 199.93054 C 943.3505 199.77877 943.5182 199.64904 943.7067 199.54133 C 943.89883 199.43363 944.10567 199.34551 944.3333 199.27697 C 944.5585 199.20843 944.7972 199.17416 945.053 199.17416 C 945.5401 199.17416 945.95623 199.26228 946.30015 199.43853 C 946.64284 199.61477 946.91945 199.84242 947.12996 200.12147 C 947.3405 200.40052 947.491 200.72119 947.58403 201.08347 C 947.67705 201.44574 947.7248 201.80802 947.7248 202.1703 L 947.7248 206.69389 Z" stroke="lime" stroke-linecap="round" stroke-linejoin="round" stroke-width="1"/><path d="M 954.5836 202.19992 C 954.5836 201.81806 954.46365 201.49005 954.22377 201.21589 C 953.9839 200.94174 953.62405 200.80466 953.1443 200.80466 C 952.9093 200.80466 952.6939 200.84138 952.49805 200.91481 C 952.3022 200.98824 952.1309 201.0886 951.984 201.21589 C 951.83713 201.34318 951.71964 201.4925 951.6315 201.66385 C 951.5446 201.83519 951.49566 202.01388 951.48465 202.19992 Z M 956.80133 203.1252 L 956.80133 203.41894 C 956.80133 203.51685 956.79643 203.60987 956.78664 203.69799 L 951.48465 203.69799 C 951.50423 203.90361 951.5654 204.08964 951.66823 204.2561 C 951.77104 204.42255 951.90445 204.56697 952.0648 204.68936 C 952.22634 204.81175 952.4075 204.90722 952.6082 204.97576 C 952.8089 205.0443 953.017 205.07856 953.2324 205.07856 C 953.61426 205.07856 953.9386 205.00758 954.20174 204.8656 C 954.4661 204.72363 954.6815 204.54004 954.84796 204.31484 L 956.5223 205.3723 C 956.1796 205.87166 955.72796 206.25597 955.16496 206.52523 C 954.60073 206.79449 953.94716 206.92912 953.203 206.92912 C 952.6547 206.92912 952.13577 206.84345 951.6474 206.6721 C 951.15664 206.50075 950.7295 206.25107 950.3611 205.92307 C 949.9939 205.59506 949.7051 205.19116 949.49456 204.71139 C 949.28405 204.23162 949.1788 203.6833 949.1788 203.06645 C 949.1788 202.46918 949.2816 201.92821 949.4872 201.44354 C 949.69284 200.95887 949.9719 200.54764 950.3256 200.20984 C 950.6781 199.87204 951.093 199.61012 951.57277 199.42408 C 952.05254 199.23805 952.5715 199.14503 953.1308 199.14503 C 953.6681 199.14503 954.16257 199.2356 954.61297 199.41674 C 955.06337 199.59788 955.4501 199.8598 955.77446 200.20249 C 956.09635 200.54519 956.3485 200.96132 956.5296 201.45088 C 956.71076 201.94045 956.80133 202.49855 956.80133 203.1252" stroke="lime" stroke-linecap="round" stroke-linejoin="round" stroke-width="1"/><path d="M 963.10314 206.69389 L 963.10314 202.69903 C 963.10314 202.49341 963.0848 202.29759 963.05173 202.11155 C 963.01746 201.92552 962.96116 201.76151 962.8816 201.61954 C 962.8045 201.47757 962.6931 201.36497 962.5524 201.28174 C 962.4104 201.19851 962.2305 201.1569 962.0151 201.1569 C 961.8009 201.1569 961.6112 201.19851 961.44963 201.28174 C 961.2893 201.36497 961.15344 201.48001 961.04574 201.62688 C 960.93803 201.77375 960.85726 201.94265 960.8046 202.13358 C 960.74955 202.32451 960.72385 202.52279 960.72385 202.7284 L 960.72385 206.69389 L 958.2993 206.69389 L 958.2993 199.37978 L 960.6345 199.37978 L 960.6345 200.39318 L 960.6651 200.39318 C 960.7532 200.23652 960.8683 200.0823 961.01025 199.93054 C 961.151 199.77877 961.3187 199.64904 961.5084 199.54133 C 961.70053 199.43363 961.9074 199.34551 962.1338 199.27697 C 962.359 199.20843 962.5989 199.17416 962.85346 199.17416 C 963.3418 199.17416 963.75793 199.26228 964.1006 199.43853 C 964.44455 199.61477 964.7199 199.84242 964.93044 200.12147 C 965.1422 200.40052 965.2927 200.72119 965.38574 201.08347 C 965.47875 201.44574 965.52526 201.80802 965.52526 202.1703 L 965.52526 206.69389 Z" stroke="lime" stroke-linecap="round" stroke-linejoin="round" stroke-width="1"/><path d="M 976.6582 206.69389 L 974.2361 206.69389 L 972.79556 202.14093 L 972.7662 202.14093 L 971.35623 206.69389 L 968.9329 206.69389 L 966.4067 199.37978 L 969.0063 199.37978 L 970.2694 204.00617 L 970.31346 204.00617 L 971.6206 199.37978 L 974.04395 199.37978 L 975.39515 204.00617 L 975.4245 204.00617 L 976.7023 199.37978 L 979.1991 199.37978 Z" stroke="lime" stroke-linecap="round" stroke-linejoin="round" stroke-width="1"/><path d="M 985.17667 202.19992 C 985.17667 201.81806 985.0567 201.49005 984.81684 201.21589 C 984.57695 200.94174 984.2171 200.80466 983.73735 200.80466 C 983.50235 200.80466 983.28695 200.84138 983.0911 200.91481 C 982.8953 200.98824 982.72394 201.0886 982.5771 201.21589 C 982.4302 201.34318 982.3127 201.4925 982.2246 201.66385 C 982.1377 201.83519 982.08873 202.01388 982.0777 202.19992 Z M 987.3944 203.1252 L 987.3944 203.41894 C 987.3944 203.51685 987.3895 203.60987 987.3797 203.69799 L 982.0777 203.69799 C 982.0973 203.90361 982.1585 204.08964 982.2613 204.2561 C 982.3641 204.42255 982.4975 204.56697 982.65785 204.68936 C 982.8194 204.81175 983.00055 204.90722 983.2013 204.97576 C 983.402 205.0443 983.61006 205.07856 983.82547 205.07856 C 984.2073 205.07856 984.53167 205.00758 984.7948 204.8656 C 985.0592 204.72363 985.2746 204.54004 985.44103 204.31484 L 987.11535 205.3723 C 986.77265 205.87166 986.321 206.25597 985.758 206.52523 C 985.1938 206.79449 984.54023 206.92912 983.7961 206.92912 C 983.2478 206.92912 982.72884 206.84345 982.2405 206.6721 C 981.7497 206.50075 981.32256 206.25107 980.95417 205.92307 C 980.587 205.59506 980.29815 205.19116 980.08763 204.71139 C 979.8771 204.23162 979.77186 203.6833 979.77186 203.06645 C 979.77186 202.46918 979.8747 201.92821 980.0803 201.44354 C 980.2859 200.95887 980.56496 200.54764 980.9187 200.20984 C 981.27116 199.87204 981.68607 199.61012 982.16584 199.42408 C 982.6456 199.23805 983.16455 199.14503 983.7239 199.14503 C 984.2612 199.14503 984.75564 199.2356 985.20604 199.41674 C 985.65644 199.59788 986.0432 199.8598 986.36754 200.20249 C 986.6894 200.54519 986.94155 200.96132 987.1227 201.45088 C 987.30383 201.94045 987.3944 202.49855 987.3944 203.1252" stroke="lime" stroke-linecap="round" stroke-linejoin="round" stroke-width="1"/><path d="M 993.946 201.7445 C 993.80893 201.56826 993.6217 201.42628 993.3879 201.31858 C 993.1529 201.21087 992.9118 201.15702 992.667 201.15702 C 992.41245 201.15702 992.1836 201.20843 991.97796 201.31124 C 991.77234 201.41404 991.5949 201.55112 991.4492 201.72247 C 991.30236 201.89382 991.1861 202.09209 991.1041 202.31729 C 991.01963 202.54249 990.978 202.78238 990.978 203.03695 C 990.978 203.29153 991.0172 203.53142 991.09674 203.75662 C 991.17385 203.98182 991.2889 204.18009 991.44066 204.35144 C 991.5924 204.52279 991.7748 204.65742 991.9841 204.75533 C 992.1946 204.85324 992.43325 204.9022 992.6964 204.9022 C 992.9424 204.9022 993.1835 204.85569 993.4234 204.76267 C 993.6645 204.66965 993.8579 204.53502 994.00476 204.35878 L 995.3413 205.98903 C 995.03774 206.28277 994.64486 206.51287 994.1663 206.67932 C 993.6853 206.84577 993.17617 206.929 992.63887 206.929 C 992.05996 206.929 991.52144 206.84088 991.01963 206.66463 C 990.51905 206.48839 990.08456 206.23137 989.71494 205.89357 C 989.3453 205.55577 989.05525 205.14698 988.8435 204.66721 C 988.6318 204.18743 988.5253 203.64402 988.5253 203.03695 C 988.5253 202.43968 988.6318 201.90116 988.8435 201.42139 C 989.05525 200.94161 989.3453 200.53283 989.71494 200.19503 C 990.08456 199.85723 990.51905 199.59776 991.01963 199.41662 C 991.52144 199.23548 992.05506 199.14491 992.6242 199.14491 C 992.88855 199.14491 993.15047 199.16939 993.40994 199.21834 C 993.6682 199.2673 993.9191 199.33339 994.159 199.41662 C 994.39763 199.49984 994.61916 199.60265 994.8199 199.72504 C 995.0194 199.84743 995.1944 199.98207 995.3413 200.12893 Z" stroke="lime" stroke-linecap="round" stroke-linejoin="round" stroke-width="1"/><path d="M 1004.139 206.69389 L 1001.15633 206.69389 L 998.76236 203.1837 L 998.7183 203.1837 L 998.7183 206.69389 L 996.29617 206.69389 L 996.29617 195.59054 L 998.7183 195.59054 L 998.7183 202.34654 L 998.76236 202.34654 L 1001.0988 199.37978 L 1004.0203 199.37978 L 1001.2016 202.68434 Z" stroke="lime" stroke-linecap="round" stroke-linejoin="round" stroke-width="1"/><path d="M 1009.7924 202.19992 C 1009.7924 201.81806 1009.67245 201.49005 1009.43256 201.21589 C 1009.1927 200.94174 1008.83284 200.80466 1008.35307 200.80466 C 1008.1181 200.80466 1007.90267 200.84138 1007.70684 200.91481 C 1007.511 200.98824 1007.33967 201.0886 1007.1928 201.21589 C 1007.0459 201.34318 1006.92843 201.4925 1006.8403 201.66385 C 1006.7534 201.83519 1006.70445 202.01388 1006.69344 202.19992 Z M 1012.0101 203.1252 L 1012.0101 203.41894 C 1012.0101 203.51685 1012.0052 203.60987 1011.99543 203.69799 L 1006.69344 203.69799 C 1006.713 203.90361 1006.7742 204.08964 1006.877 204.2561 C 1006.97984 204.42255 1007.11324 204.56697 1007.2736 204.68936 C 1007.43513 204.81175 1007.6163 204.90722 1007.817 204.97576 C 1008.0177 205.0443 1008.2258 205.07856 1008.4412 205.07856 C 1008.82305 205.07856 1009.1474 205.00758 1009.4105 204.8656 C 1009.6749 204.72363 1009.8903 204.54004 1010.05675 204.31484 L 1011.73107 205.3723 C 1011.3884 205.87166 1010.93675 206.25597 1010.37375 206.52523 C 1009.8095 206.79449 1009.15595 206.92912 1008.4118 206.92912 C 1007.8635 206.92912 1007.34456 206.84345 1006.8562 206.6721 C 1006.36543 206.50075 1005.9383 206.25107 1005.5699 205.92307 C 1005.2027 205.59506 1004.91387 205.19116 1004.70336 204.71139 C 1004.49284 204.23162 1004.3876 203.6833 1004.3876 203.06645 C 1004.3876 202.46918 1004.4904 201.92821 1004.696 201.44354 C 1004.9016 200.95887 1005.1807 200.54764 1005.5344 200.20984 C 1005.8869 199.87204 1006.3018 199.61012 1006.78156 199.42408 C 1007.26134 199.23805 1007.7803 199.14503 1008.3396 199.14503 C 1008.8769 199.14503 1009.37136 199.2356 1009.82176 199.41674 C 1010.27216 199.59788 1010.6589 199.8598 1010.98326 200.20249 C 1011.30515 200.54519 1011.5573 200.96132 1011.7384 201.45088 C 1011.91955 201.94045 1012.0101 202.49855 1012.0101 203.1252" stroke="lime" stroke-linecap="round" stroke-linejoin="round" stroke-width="1"/><path d="M 1018.2522 201.36264 C 1018.1445 201.33327 1018.03924 201.31368 1017.93643 201.30389 C 1017.8336 201.2941 1017.73326 201.2892 1017.63535 201.2892 C 1017.31224 201.2892 1017.04175 201.34795 1016.8202 201.46422 C 1016.5999 201.58172 1016.4249 201.7237 1016.2915 201.89015 C 1016.1593 202.05538 1016.06507 202.23651 1016.0051 202.43234 C 1015.94635 202.62694 1015.9182 202.79707 1015.9182 202.94394 L 1015.9182 206.69401 L 1013.5083 206.69401 L 1013.5083 199.38847 L 1015.8301 199.38847 L 1015.8301 200.44593 L 1015.85945 200.44593 C 1016.04426 200.07141 1016.3086 199.76543 1016.6513 199.52922 C 1016.99524 199.293 1017.39057 199.17428 1017.84097 199.17428 C 1017.9389 199.17428 1018.03435 199.17918 1018.12736 199.18897 C 1018.2216 199.19876 1018.29626 199.21345 1018.355 199.23303 Z" stroke="lime" stroke-linecap="round" stroke-linejoin="round" stroke-width="1"/><line x1="242.3623" y1="36.850392" x2="242.3623" y2="124.72441" stroke="blue" stroke-linecap="round" stroke-linejoin="round" stroke-width=".5"/><line x1="242.36224" y1="130.39369" x2="242.36224" y2="218.26771" stroke="blue" stroke-linecap="round" stroke-linejoin="round" stroke-width=".5"/><line x1="253.70088" y1="36.850392" x2="253.70088" y2="124.72441" stroke="blue" stroke-linecap="round" stroke-linejoin="round" stroke-width=".5"/><line x1="253.70082" y1="130.39369" x2="253.70082" y2="218.26771" stroke="blue" stroke-linecap="round" stroke-linejoin="round" stroke-width=".5"/><line x1="265.03946" y1="36.850392" x2="265.03946" y2="124.72441" stroke="blue" stroke-linecap="round" stroke-linejoin="round" stroke-width=".5"/><line x1="265.0394" y1="130.39369" x2="265.0394" y2="218.26771" stroke="blue" stroke-linecap="round" stroke-linejoin="round" stroke-width=".5"/><line x1="276.37804" y1="36.850392" x2="276.37804" y2="124.72441" stroke="blue" stroke-linecap="round" stroke-linejoin="round" stroke-width=".5"/><line x1="276.37799" y1="130.39369" x2="276.37799" y2="218.26771" stroke="blue" stroke-linecap="round" stroke-linejoin="round" stroke-width=".5"/><line x1="287.71662" y1="36.850392" x2="287.71662" y2="124.72441" stroke="blue" stroke-linecap="round" stroke-linejoin="round" stroke-width=".5"/><line x1="287.71657" y1="130.39369" x2="287.71657" y2="218.26771" stroke="blue" stroke-linecap="round" stroke-linejoin="round" stroke-width=".5"/><line x1="259.37017" y1="79.370074" x2="259.37017" y2="175.74803" stroke="blue" stroke-linecap="round" stroke-linejoin="round" stroke-width=".5"/><line x1="259.37017" y1="36.850392" x2="259.37017" y2="73.70079" stroke="blue" stroke-linecap="round" stroke-linejoin="round" stroke-width=".5"/><line x1="259.37017" y1="181.41731" x2="259.37017" y2="218.26771" stroke="blue" stroke-linecap="round" stroke-linejoin="round" stroke-width=".5"/><line x1="248.03159" y1="79.370074" x2="248.03159" y2="175.74803" stroke="blue" stroke-linecap="round" stroke-linejoin="round" stroke-width=".5"/><line x1="248.03159" y1="36.850392" x2="248.03159" y2="73.70079" stroke="blue" stroke-linecap="round" stroke-linejoin="round" stroke-width=".5"/><line x1="248.03159" y1="181.41731" x2="248.03159" y2="218.26771" stroke="blue" stroke-linecap="round" stroke-linejoin="round" stroke-width=".5"/><line x1="270.70875" y1="79.370074" x2="270.70875" y2="175.74803" stroke="blue" stroke-linecap="round" stroke-linejoin="round" stroke-width=".5"/><line x1="270.70875" y1="36.850392" x2="270.70875" y2="73.70079" stroke="blue" stroke-linecap="round" stroke-linejoin="round" stroke-width=".5"/><line x1="270.70875" y1="181.41731" x2="270.70875" y2="218.26771" stroke="blue" stroke-linecap="round" stroke-linejoin="round" stroke-width=".5"/><line x1="282.04733" y1="79.370074" x2="282.04733" y2="175.74803" stroke="blue" stroke-linecap="round" stroke-linejoin="round" stroke-width=".5"/><line x1="282.04733" y1="36.850392" x2="282.04733" y2="73.70079" stroke="blue" stroke-linecap="round" stroke-linejoin="round" stroke-width=".5"/><line x1="282.04733" y1="181.41731" x2="282.04733" y2="218.26771" stroke="blue" stroke-linecap="round" stroke-linejoin="round" stroke-width=".5"/><line x1="293.38591" y1="79.370074" x2="293.38591" y2="175.74803" stroke="blue" stroke-linecap="round" stroke-linejoin="round" stroke-width=".5"/><line x1="293.38591" y1="36.850392" x2="293.38591" y2="73.70079" stroke="blue" stroke-linecap="round" stroke-linejoin="round" stroke-width=".5"/><line x1="293.38591" y1="181.41731" x2="293.38591" y2="218.26771" stroke="blue" stroke-linecap="round" stroke-linejoin="round" stroke-width=".5"/><line x1="299.05515" y1="36.850387" x2="299.05515" y2="124.7244" stroke="blue" stroke-linecap="round" stroke-linejoin="round" stroke-width=".5"/><line x1="299.0551" y1="130.39369" x2="299.0551" y2="218.2677" stroke="blue" stroke-linecap="round" stroke-linejoin="round" stroke-width=".5"/><line x1="310.39373" y1="36.850387" x2="310.39373" y2="124.7244" stroke="blue" stroke-linecap="round" stroke-linejoin="round" stroke-width=".5"/><line x1="310.39368" y1="130.39369" x2="310.39368" y2="218.2677" stroke="blue" stroke-linecap="round" stroke-linejoin="round" stroke-width=".5"/><line x1="321.73232" y1="36.850387" x2="321.73232" y2="124.7244" stroke="blue" stroke-linecap="round" stroke-linejoin="round" stroke-width=".5"/><line x1="321.73227" y1="130.39369" x2="321.73227" y2="218.2677" stroke="blue" stroke-linecap="round" stroke-linejoin="round" stroke-width=".5"/><line x1="333.0709" y1="36.850387" x2="333.0709" y2="124.7244" stroke="blue" stroke-linecap="round" stroke-linejoin="round" stroke-width=".5"/><line x1="333.07085" y1="130.39369" x2="333.07085" y2="218.2677" stroke="blue" stroke-linecap="round" stroke-linejoin="round" stroke-width=".5"/><line x1="316.06303" y1="79.37007" x2="316.06303" y2="175.74802" stroke="blue" stroke-linecap="round" stroke-linejoin="round" stroke-width=".5"/><line x1="316.06303" y1="36.850387" x2="316.06303" y2="73.700783" stroke="blue" stroke-linecap="round" stroke-linejoin="round" stroke-width=".5"/><line x1="316.06303" y1="181.41731" x2="316.06303" y2="218.2677" stroke="blue" stroke-linecap="round" stroke-linejoin="round" stroke-width=".5"/><line x1="304.72444" y1="79.37007" x2="304.72444" y2="175.74802" stroke="blue" stroke-linecap="round" stroke-linejoin="round" stroke-width=".5"/><line x1="304.72444" y1="36.850387" x2="304.72444" y2="73.700783" stroke="blue" stroke-linecap="round" stroke-linejoin="round" stroke-width=".5"/><line x1="304.72444" y1="181.41731" x2="304.72444" y2="218.2677" stroke="blue" stroke-linecap="round" stroke-linejoin="round" stroke-width=".5"/><line x1="327.4016" y1="79.37007" x2="327.4016" y2="175.74802" stroke="blue" stroke-linecap="round" stroke-linejoin="round" stroke-width=".5"/><line x1="327.4016" y1="36.850387" x2="327.4016" y2="73.700783" stroke="blue" stroke-linecap="round" stroke-linejoin="round" stroke-width=".5"/><line x1="327.4016" y1="181.41731" x2="327.4016" y2="218.2677" stroke="blue" stroke-linecap="round" stroke-linejoin="round" stroke-width=".5"/><line x1="338.7402" y1="79.37007" x2="338.7402" y2="175.74802" stroke="blue" stroke-linecap="round" stroke-linejoin="round" stroke-width=".5"/><line x1="338.7402" y1="36.850387" x2="338.7402" y2="73.700783" stroke="blue" stroke-linecap="round" stroke-linejoin="round" stroke-width=".5"/><line x1="338.7402" y1="181.41731" x2="338.7402" y2="218.2677" stroke="blue" stroke-linecap="round" stroke-linejoin="round" stroke-width=".5"/><line x1="483.30717" y1="36.850392" x2="483.30717" y2="124.72441" stroke="blue" stroke-linecap="round" stroke-linejoin="round" stroke-width=".5"/><line x1="483.30712" y1="130.39369" x2="483.30712" y2="218.26771" stroke="blue" stroke-linecap="round" stroke-linejoin="round" stroke-width=".5"/><line x1="494.64576" y1="36.850392" x2="494.64576" y2="124.72441" stroke="blue" stroke-linecap="round" stroke-linejoin="round" stroke-width=".5"/><line x1="494.6457" y1="130.39369" x2="494.6457" y2="218.26771" stroke="blue" stroke-linecap="round" stroke-linejoin="round" stroke-width=".5"/><line x1="505.98434" y1="36.850392" x2="505.98434" y2="124.72441" stroke="blue" stroke-linecap="round" stroke-linejoin="round" stroke-width=".5"/><line x1="505.9843" y1="130.39369" x2="505.9843" y2="218.26771" stroke="blue" stroke-linecap="round" stroke-linejoin="round" stroke-width=".5"/><line x1="517.32292" y1="36.850392" x2="517.32292" y2="124.72441" stroke="blue" stroke-linecap="round" stroke-linejoin="round" stroke-width=".5"/><line x1="517.32287" y1="130.39369" x2="517.32287" y2="218.26771" stroke="blue" stroke-linecap="round" stroke-linejoin="round" stroke-width=".5"/><line x1="528.6615" y1="36.850392" x2="528.6615" y2="124.72441" stroke="blue" stroke-linecap="round" stroke-linejoin="round" stroke-width=".5"/><line x1="528.66145" y1="130.39369" x2="528.66145" y2="218.26771" stroke="blue" stroke-linecap="round" stroke-linejoin="round" stroke-width=".5"/><line x1="500.31505" y1="79.370074" x2="500.31505" y2="175.74803" stroke="blue" stroke-linecap="round" stroke-linejoin="round" stroke-width=".5"/><line x1="500.31505" y1="36.850392" x2="500.31505" y2="73.70079" stroke="blue" stroke-linecap="round" stroke-linejoin="round" stroke-width=".5"/><line x1="500.31505" y1="181.41731" x2="500.31505" y2="218.26771" stroke="blue" stroke-linecap="round" stroke-linejoin="round" stroke-width=".5"/><line x1="488.97647" y1="79.370074" x2="488.97647" y2="175.74803" stroke="blue" stroke-linecap="round" stroke-linejoin="round" stroke-width=".5"/><line x1="488.97647" y1="36.850392" x2="488.97647" y2="73.70079" stroke="blue" stroke-linecap="round" stroke-linejoin="round" stroke-width=".5"/><line x1="488.97647" y1="181.41731" x2="488.97647" y2="218.26771" stroke="blue" stroke-linecap="round" stroke-linejoin="round" stroke-width=".5"/><line x1="511.65363" y1="79.370074" x2="511.65363" y2="175.74803" stroke="blue" stroke-linecap="round" stroke-linejoin="round" stroke-width=".5"/><line x1="511.65363" y1="36.850392" x2="511.65363" y2="73.70079" stroke="blue" stroke-linecap="round" stroke-linejoin="round" stroke-width=".5"/><line x1="511.65363" y1="181.41731" x2="511.65363" y2="218.26771" stroke="blue" stroke-linecap="round" stroke-linejoin="round" stroke-width=".5"/><line x1="522.9922" y1="79.370074" x2="522.9922" y2="175.74803" stroke="blue" stroke-linecap="round" stroke-linejoin="round" stroke-width=".5"/><line x1="522.9922" y1="36.850392" x2="522.9922" y2="73.70079" stroke="blue" stroke-linecap="round" stroke-linejoin="round" stroke-width=".5"/><line x1="522.9922" y1="181.41731" x2="522.9922" y2="218.26771" stroke="blue" stroke-linecap="round" stroke-linejoin="round" stroke-width=".5"/><line x1="534.3308" y1="79.370074" x2="534.3308" y2="175.74803" stroke="blue" stroke-linecap="round" stroke-linejoin="round" stroke-width=".5"/><line x1="534.3308" y1="36.850392" x2="534.3308" y2="73.70079" stroke="blue" stroke-linecap="round" stroke-linejoin="round" stroke-width=".5"/><line x1="534.3308" y1="181.41731" x2="534.3308" y2="218.26771" stroke="blue" stroke-linecap="round" stroke-linejoin="round" stroke-width=".5"/><line x1="540.00003" y1="36.850387" x2="540.00003" y2="124.7244" stroke="blue" stroke-linecap="round" stroke-linejoin="round" stroke-width=".5"/><line x1="539.99998" y1="130.39369" x2="539.99998" y2="218.2677" stroke="blue" stroke-linecap="round" stroke-linejoin="round" stroke-width=".5"/><line x1="551.3386" y1="36.850387" x2="551.3386" y2="124.7244" stroke="blue" stroke-linecap="round" stroke-linejoin="round" stroke-width=".5"/><line x1="551.33856" y1="130.39369" x2="551.33856" y2="218.2677" stroke="blue" stroke-linecap="round" stroke-linejoin="round" stroke-width=".5"/><line x1="562.6772" y1="36.850387" x2="562.6772" y2="124.7244" stroke="blue" stroke-linecap="round" stroke-linejoin="round" stroke-width=".5"/><line x1="562.67715" y1="130.39369" x2="562.67715" y2="218.2677" stroke="blue" stroke-linecap="round" stroke-linejoin="round" stroke-width=".5"/><line x1="574.01578" y1="36.850387" x2="574.01578" y2="124.7244" stroke="blue" stroke-linecap="round" stroke-linejoin="round" stroke-width=".5"/><line x1="574.01573" y1="130.39369" x2="574.01573" y2="218.2677" stroke="blue" stroke-linecap="round" stroke-linejoin="round" stroke-width=".5"/><line x1="557.0079" y1="79.37007" x2="557.0079" y2="175.74802" stroke="blue" stroke-linecap="round" stroke-linejoin="round" stroke-width=".5"/><line x1="557.0079" y1="36.850387" x2="557.0079" y2="73.700783" stroke="blue" stroke-linecap="round" stroke-linejoin="round" stroke-width=".5"/><line x1="557.0079" y1="181.41731" x2="557.0079" y2="218.2677" stroke="blue" stroke-linecap="round" stroke-linejoin="round" stroke-width=".5"/><line x1="545.66932" y1="79.37007" x2="545.66932" y2="175.74802" stroke="blue" stroke-linecap="round" stroke-linejoin="round" stroke-width=".5"/><line x1="545.66932" y1="36.850387" x2="545.66932" y2="73.700783" stroke="blue" stroke-linecap="round" stroke-linejoin="round" stroke-width=".5"/><line x1="545.66932" y1="181.41731" x2="545.66932" y2="218.2677" stroke="blue" stroke-linecap="round" stroke-linejoin="round" stroke-width=".5"/><line x1="568.3465" y1="79.37007" x2="568.3465" y2="175.74802" stroke="blue" stroke-linecap="round" stroke-linejoin="round" stroke-width=".5"/><line x1="568.3465" y1="36.850387" x2="568.3465" y2="73.700783" stroke="blue" stroke-linecap="round" stroke-linejoin="round" stroke-width=".5"/><line x1="568.3465" y1="181.41731" x2="568.3465" y2="218.2677" stroke="blue" stroke-linecap="round" stroke-linejoin="round" stroke-width=".5"/><line x1="579.68507" y1="79.37007" x2="579.68507" y2="175.74802" stroke="blue" stroke-linecap="round" stroke-linejoin="round" stroke-width=".5"/><line x1="579.68507" y1="36.850387" x2="579.68507" y2="73.700783" stroke="blue" stroke-linecap="round" stroke-linejoin="round" stroke-width=".5"/><line x1="579.68507" y1="181.41731" x2="579.68507" y2="218.2677" stroke="blue" stroke-linecap="round" stroke-linejoin="round" stroke-width=".5"/><line x1="724.25206" y1="36.850392" x2="724.25206" y2="124.72441" stroke="blue" stroke-linecap="round" stroke-linejoin="round" stroke-width=".5"/><line x1="724.252" y1="130.39369" x2="724.252" y2="218.26771" stroke="blue" stroke-linecap="round" stroke-linejoin="round" stroke-width=".5"/><line x1="735.59064" y1="36.850392" x2="735.59064" y2="124.72441" stroke="blue" stroke-linecap="round" stroke-linejoin="round" stroke-width=".5"/><line x1="735.5906" y1="130.39369" x2="735.5906" y2="218.26771" stroke="blue" stroke-linecap="round" stroke-linejoin="round" stroke-width=".5"/><line x1="746.9292" y1="36.850392" x2="746.9292" y2="124.72441" stroke="blue" stroke-linecap="round" stroke-linejoin="round" stroke-width=".5"/><line x1="746.92917" y1="130.39369" x2="746.92917" y2="218.26771" stroke="blue" stroke-linecap="round" stroke-linejoin="round" stroke-width=".5"/><line x1="758.2678" y1="36.850392" x2="758.2678" y2="124.72441" stroke="blue" stroke-linecap="round" stroke-linejoin="round" stroke-width=".5"/><line x1="758.26775" y1="130.39369" x2="758.26775" y2="218.26771" stroke="blue" stroke-linecap="round" stroke-linejoin="round" stroke-width=".5"/><line x1="769.6064" y1="36.850392" x2="769.6064" y2="124.72441" stroke="blue" stroke-linecap="round" stroke-linejoin="round" stroke-width=".5"/><line x1="769.60633" y1="130.39369" x2="769.60633" y2="218.26771" stroke="blue" stroke-linecap="round" stroke-linejoin="round" stroke-width=".5"/><line x1="741.25993" y1="79.370074" x2="741.25993" y2="175.74803" stroke="blue" stroke-linecap="round" stroke-linejoin="round" stroke-width=".5"/><line x1="741.25993" y1="36.850392" x2="741.25993" y2="73.70079" stroke="blue" stroke-linecap="round" stroke-linejoin="round" stroke-width=".5"/><line x1="741.25993" y1="181.41731" x2="741.25993" y2="218.26771" stroke="blue" stroke-linecap="round" stroke-linejoin="round" stroke-width=".5"/><line x1="729.92135" y1="79.370074" x2="729.92135" y2="175.74803" stroke="blue" stroke-linecap="round" stroke-linejoin="round" stroke-width=".5"/><line x1="729.92135" y1="36.850392" x2="729.92135" y2="73.70079" stroke="blue" stroke-linecap="round" stroke-linejoin="round" stroke-width=".5"/><line x1="729.92135" y1="181.41731" x2="729.92135" y2="218.26771" stroke="blue" stroke-linecap="round" stroke-linejoin="round" stroke-width=".5"/><line x1="752.5985" y1="79.370074" x2="752.5985" y2="175.74803" stroke="blue" stroke-linecap="round" stroke-linejoin="round" stroke-width=".5"/><line x1="752.5985" y1="36.850392" x2="752.5985" y2="73.70079" stroke="blue" stroke-linecap="round" stroke-linejoin="round" stroke-width=".5"/><line x1="752.5985" y1="181.41731" x2="752.5985" y2="218.26771" stroke="blue" stroke-linecap="round" stroke-linejoin="round" stroke-width=".5"/><line x1="763.9371" y1="79.370074" x2="763.9371" y2="175.74803" stroke="blue" stroke-linecap="round" stroke-linejoin="round" stroke-width=".5"/><line x1="763.9371" y1="36.850392" x2="763.9371" y2="73.70079" stroke="blue" stroke-linecap="round" stroke-linejoin="round" stroke-width=".5"/><line x1="763.9371" y1="181.41731" x2="763.9371" y2="218.26771" stroke="blue" stroke-linecap="round" stroke-linejoin="round" stroke-width=".5"/><line x1="775.27567" y1="79.370074" x2="775.27567" y2="175.74803" stroke="blue" stroke-linecap="round" stroke-linejoin="round" stroke-width=".5"/><line x1="775.27567" y1="36.850392" x2="775.27567" y2="73.70079" stroke="blue" stroke-linecap="round" stroke-linejoin="round" stroke-width=".5"/><line x1="775.27567" y1="181.41731" x2="775.27567" y2="218.26771" stroke="blue" stroke-linecap="round" stroke-linejoin="round" stroke-width=".5"/><line x1="780.9449" y1="36.850387" x2="780.9449" y2="124.7244" stroke="blue" stroke-linecap="round" stroke-linejoin="round" stroke-width=".5"/><line x1="780.94486" y1="130.39369" x2="780.94486" y2="218.2677" stroke="blue" stroke-linecap="round" stroke-linejoin="round" stroke-width=".5"/><line x1="792.2835" y1="36.850387" x2="792.2835" y2="124.7244" stroke="blue" stroke-linecap="round" stroke-linejoin="round" stroke-width=".5"/><line x1="792.28344" y1="130.39369" x2="792.28344" y2="218.2677" stroke="blue" stroke-linecap="round" stroke-linejoin="round" stroke-width=".5"/><line x1="803.6221" y1="36.850387" x2="803.6221" y2="124.7244" stroke="blue" stroke-linecap="round" stroke-linejoin="round" stroke-width=".5"/><line x1="803.62203" y1="130.39369" x2="803.62203" y2="218.2677" stroke="blue" stroke-linecap="round" stroke-linejoin="round" stroke-width=".5"/><line x1="814.96066" y1="36.850387" x2="814.96066" y2="124.7244" stroke="blue" stroke-linecap="round" stroke-linejoin="round" stroke-width=".5"/><line x1="814.9606" y1="130.39369" x2="814.9606" y2="218.2677" stroke="blue" stroke-linecap="round" stroke-linejoin="round" stroke-width=".5"/><line x1="797.9528" y1="79.37007" x2="797.9528" y2="175.74802" stroke="blue" stroke-linecap="round" stroke-linejoin="round" stroke-width=".5"/><line x1="797.9528" y1="36.850387" x2="797.9528" y2="73.700783" stroke="blue" stroke-linecap="round" stroke-linejoin="round" stroke-width=".5"/><line x1="797.9528" y1="181.41731" x2="797.9528" y2="218.2677" stroke="blue" stroke-linecap="round" stroke-linejoin="round" stroke-width=".5"/><line x1="786.6142" y1="79.37007" x2="786.6142" y2="175.74802" stroke="blue" stroke-linecap="round" stroke-linejoin="round" stroke-width=".5"/><line x1="786.6142" y1="36.850387" x2="786.6142" y2="73.700783" stroke="blue" stroke-linecap="round" stroke-linejoin="round" stroke-width=".5"/><line x1="786.6142" y1="181.41731" x2="786.6142" y2="218.2677" stroke="blue" stroke-linecap="round" stroke-linejoin="round" stroke-width=".5"/><line x1="809.29137" y1="79.37007" x2="809.29137" y2="175.74802" stroke="blue" stroke-linecap="round" stroke-linejoin="round" stroke-width=".5"/><line x1="809.29137" y1="36.850387" x2="809.29137" y2="73.700783" stroke="blue" stroke-linecap="round" stroke-linejoin="round" stroke-width=".5"/><line x1="809.29137" y1="181.41731" x2="809.29137" y2="218.2677" stroke="blue" stroke-linecap="round" stroke-linejoin="round" stroke-width=".5"/><line x1="820.62995" y1="79.37007" x2="820.62995" y2="175.74802" stroke="blue" stroke-linecap="round" stroke-linejoin="round" stroke-width=".5"/><line x1="820.62995" y1="36.850387" x2="820.62995" y2="73.700783" stroke="blue" stroke-linecap="round" stroke-linejoin="round" stroke-width=".5"/><line x1="820.62995" y1="181.41731" x2="820.62995" y2="218.2677" stroke="blue" stroke-linecap="round" stroke-linejoin="round" stroke-width=".5"/></g></g></svg>
