<?xml version="1.0" encoding="utf-8" standalone="no"?>
<!DOCTYPE svg PUBLIC "-//W3C//DTD SVG 1.1//EN" "http://www.w3.org/Graphics/SVG/1.1/DTD/svg11.dtd">
<svg xmlns="http://www.w3.org/2000/svg" xmlns:xl="http://www.w3.org/1999/xlink" version="1.1" viewBox="0 0 1686.6142 694.4882" width="1686.6142pt" height="694.4882pt" xmlns:dc="http://purl.org/dc/elements/1.1/"><metadata> Produced by OmniGraffle 6.2.1 <dc:date>2015-04-15 15:12:16 +0000</dc:date></metadata><defs/><g stroke="none" stroke-opacity="1" stroke-dasharray="none" fill="none" fill-opacity="1"><title>print</title><g><title>Layer 1</title><path d="M 481.88979 130.39373 L 572.59845 130.39373 L 572.59845 221.10239 L 481.88979 221.10239 Z M 467.71656 133.22838 L 476.2205 133.22838 L 476.2205 161.57483 L 467.71656 161.57483 Z M 467.71656 189.92129 L 476.2205 189.92129 L 476.2205 218.26775 L 467.71656 218.26775 Z M 578.26774 133.22838 L 586.77167 133.22838 L 586.77167 161.57483 L 578.26774 161.57483 Z M 578.26774 189.92129 L 586.77167 189.92129 L 586.77167 218.26775 L 578.26774 218.26775 Z M 142.07622 220.7585 C 145.39723 224.0795 145.39723 229.46388 142.07622 232.78487 C 138.755226 236.10588 133.37084 236.10588 130.04985 232.78487 C 126.72884 229.46388 126.72884 224.0795 130.04985 220.7585 C 133.37084 217.4375 138.755226 217.4375 142.07622 220.7585 M 140.071775 200.08573 C 142.28578 202.29973 142.28578 205.88932 140.071775 208.10331 C 137.85778 210.31732 134.26819 210.31732 132.054195 208.10331 C 129.84019 205.88932 129.84019 202.29973 132.054195 200.08573 C 134.26819 197.87173 137.85778 197.87173 140.071775 200.08573 M 79.370074 274.9607 L 79.370074 257.95274 L 192.7559 257.95274 L 192.7559 274.9607 L 206.92917 274.9607 L 206.92917 266.45668 L 260.78744 266.45668 L 260.78744 274.9607 L 289.13384 274.9607 L 289.13384 266.45668 L 317.4803 266.45668 L 317.4803 274.9607 L 345.82675 274.9607 L 345.82675 266.45668 L 374.1732 266.45668 L 374.1732 274.9607 L 402.51966 274.9607 L 402.51966 266.45668 L 456.37793 266.45668 L 456.37793 274.9607 L 484.72438 274.9607 L 484.72438 266.45668 L 513.07084 266.45668 L 513.07084 274.9607 L 541.4173 274.9607 L 541.4173 266.45668 L 569.76375 266.45668 L 569.76375 274.9607 L 598.1102 274.9607 L 598.1102 266.45668 L 651.96847 266.45668 L 651.96847 274.9607 L 680.31492 274.9607 L 680.31492 266.45668 L 708.6614 266.45668 L 708.6614 274.9607 L 737.00784 274.9607 L 737.00784 266.45668 L 765.3543 266.45668 L 765.3543 274.9607 L 793.70074 274.9607 L 793.70074 266.45668 L 836.22043 266.45668 L 836.22043 246.61416 L 827.7165 246.61416 L 827.7165 218.2677 L 836.22043 218.2677 L 836.22043 189.92125 L 827.7165 189.92125 L 827.7165 161.57479 L 836.22043 161.57479 L 836.22043 133.22834 L 827.7165 133.22834 L 827.7165 104.88188 L 836.22043 104.88188 L 836.22043 85.039367 L 793.70074 85.039367 L 793.70074 76.53543 L 765.3543 76.53543 L 765.3543 85.039367 L 737.00784 85.039367 L 737.00784 76.53543 L 708.6614 76.53543 L 708.6614 85.039367 L 680.31492 85.039367 L 680.31492 76.53543 L 651.96847 76.53543 L 651.96847 85.039367 L 598.1102 85.039367 L 598.1102 76.53543 L 569.76375 76.53543 L 569.76375 85.039367 L 541.4173 85.039367 L 541.4173 76.53543 L 513.07084 76.53543 L 513.07084 85.039367 L 484.72438 85.039367 L 484.72438 76.53543 L 456.37793 76.53543 L 456.37793 85.039367 L 402.51966 85.039367 L 402.51966 76.53543 L 374.1732 76.53543 L 374.1732 85.039367 L 345.82675 85.039367 L 345.82675 76.53543 L 317.4803 76.53543 L 317.4803 85.039367 L 289.13384 85.039367 L 289.13384 76.53543 L 260.78744 76.53543 L 260.78744 85.039367 L 206.92917 85.039367 L 206.92917 76.53543 L 178.58272 76.53543 L 178.58272 85.039367 L 150.23626 85.039367 L 150.23626 76.53543 L 121.889805 76.53543 L 121.889805 85.039367 L 93.54335 85.039367 L 93.54335 76.53543 L 65.196847 76.53543 L 65.196847 85.039367 L 31.181095 85.039367 L 31.181095 104.881885 L 22.677164 104.881885 L 22.677164 133.22834 L 31.181095 133.22834 L 31.181095 161.5748 L 22.677164 161.5748 L 22.677164 189.92125 L 31.181095 189.92125 L 31.181095 218.2677 L 22.677164 218.2677 L 22.677164 246.61416 L 31.181095 246.61416 L 31.181095 266.45668 L 65.196847 266.45668 L 65.196847 274.9607 Z" stroke="blue" stroke-linecap="round" stroke-linejoin="round" stroke-width=".5"/><path d="M 716.5777 252.5625 C 716.3819 252.37647 716.1518 252.2198 715.88743 252.09252 C 715.62306 251.96523 715.344 251.90159 715.05027 251.90159 C 714.82507 251.90159 714.617 251.94565 714.42607 252.03377 C 714.23514 252.1219 714.13968 252.27366 714.13968 252.48907 C 714.13968 252.69469 714.24493 252.84156 714.45545 252.92968 C 714.66596 253.0178 715.0062 253.11571 715.4762 253.22342 C 715.75035 253.28216 716.02695 253.36539 716.306 253.4731 C 716.58506 253.5808 716.8372 253.72277 717.0624 253.89902 C 717.2876 254.07526 717.46872 254.29067 717.6058 254.54524 C 717.7429 254.79982 717.8114 255.10335 717.8114 255.45583 C 717.8114 255.91603 717.7184 256.30523 717.53237 256.62345 C 717.34633 256.94167 717.104 257.19869 716.80536 257.39451 C 716.50673 257.59034 716.17137 257.73231 715.7993 257.82044 C 715.42723 257.90856 715.05516 257.95262 714.6831 257.95262 C 714.08582 257.95262 713.5008 257.85715 712.928 257.66622 C 712.3552 257.4753 711.8779 257.1938 711.49602 256.82172 L 712.84722 255.39709 C 713.06263 255.63208 713.327 255.8279 713.6403 255.98457 C 713.95364 256.14123 714.28655 256.21956 714.63903 256.21956 C 714.83486 256.21956 715.02824 256.17305 715.21917 256.08003 C 715.4101 255.98701 715.50556 255.82301 715.50556 255.58802 C 715.50556 255.36282 715.38807 255.19637 715.15308 255.08866 C 714.9181 254.98096 714.5509 254.86836 714.05155 254.75086 C 713.797 254.69211 713.5424 254.61378 713.28783 254.51587 C 713.03326 254.41796 712.8044 254.28577 712.6049 254.11932 C 712.40417 253.95287 712.24016 253.74725 712.11288 253.50247 C 711.9856 253.25769 711.92194 252.96395 711.92194 252.62125 C 711.92194 252.18064 712.01496 251.80612 712.201 251.4977 C 712.38703 251.18927 712.6269 250.93715 712.92066 250.74132 C 713.2144 250.5455 713.53996 250.40107 713.89734 250.30805 C 714.25472 250.21504 714.60966 250.16853 714.96215 250.16853 C 715.51046 250.16853 716.04653 250.2542 716.57037 250.42555 C 717.0942 250.5969 717.53726 250.85392 717.89954 251.19661 Z" stroke="lime" stroke-linecap="round" stroke-linejoin="round" stroke-width="1"/><path d="M 721.8206 252.19496 L 721.8206 254.9965 C 721.8206 255.34042 721.8867 255.59867 722.01887 255.77001 C 722.15105 255.94259 722.3885 256.02826 722.7312 256.02826 C 722.8487 256.02826 722.9735 256.01969 723.1057 255.99889 C 723.2379 255.9793 723.34804 255.94993 723.43616 255.91076 L 723.46553 257.6732 C 723.2991 257.73195 723.08857 257.78335 722.834 257.82741 C 722.5794 257.87147 722.32484 257.8935 722.07027 257.8935 C 721.5807 257.8935 721.16947 257.83231 720.83657 257.70992 C 720.50366 257.58753 720.23685 257.41006 720.03613 257.17996 C 719.8354 256.94864 719.691 256.67449 719.60286 256.35504 C 719.51474 256.0356 719.47068 255.68067 719.47068 255.28779 L 719.47068 252.19496 L 718.2957 252.19496 L 718.2957 250.40315 L 719.456 250.40315 L 719.456 248.47916 L 721.8206 248.47916 L 721.8206 250.40315 L 723.53897 250.40315 L 723.53897 252.19496 Z" stroke="lime" stroke-linecap="round" stroke-linejoin="round" stroke-width="1"/><path d="M 729.70725 253.22354 C 729.70725 252.84168 729.5873 252.51367 729.3474 252.23951 C 729.10753 251.96536 728.7477 251.82828 728.26793 251.82828 C 728.03293 251.82828 727.81753 251.865 727.6217 251.93843 C 727.42587 252.01186 727.25452 252.11222 727.10766 252.23951 C 726.9608 252.3668 726.8433 252.51612 726.75517 252.68746 C 726.66705 252.85881 726.6181 253.0375 726.6083 253.22354 Z M 731.925 254.14882 L 731.925 254.44256 C 731.925 254.54047 731.9201 254.63349 731.9103 254.72161 L 726.6083 254.72161 C 726.6279 254.92723 726.68908 255.11326 726.7919 255.27971 C 726.8947 255.44617 727.02688 255.59059 727.18843 255.71298 C 727.35 255.83537 727.53113 255.93084 727.73185 255.99937 C 727.93257 256.06791 728.14064 256.10218 728.35605 256.10218 C 728.7379 256.10218 729.061 256.0312 729.3254 255.88922 C 729.58975 255.74725 729.80516 255.56366 729.9716 255.33846 L 731.64593 256.39592 C 731.30323 256.89528 730.8504 257.27959 730.2874 257.54885 C 729.7244 257.81811 729.0708 257.95274 728.32667 257.95274 C 727.77836 257.95274 727.2594 257.86707 726.76985 257.69572 C 726.2803 257.52437 725.8519 257.2747 725.48475 256.94668 C 725.11757 256.61868 724.82873 256.21478 724.6182 255.73501 C 724.4077 255.25524 724.30244 254.70692 724.30244 254.09007 C 724.30244 253.4928 724.40525 252.95183 724.61087 252.46716 C 724.8165 251.98249 725.09554 251.57125 725.44803 251.23345 C 725.8005 250.89565 726.21665 250.63374 726.6964 250.4477 C 727.1762 250.26167 727.69513 250.16865 728.25324 250.16865 C 728.79176 250.16865 729.2862 250.25922 729.73662 250.44036 C 730.18702 250.6215 730.5738 250.88342 730.8969 251.22611 C 731.22 251.5688 731.47213 251.98494 731.65327 252.4745 C 731.8344 252.96407 731.925 253.52217 731.925 254.14882" stroke="lime" stroke-linecap="round" stroke-linejoin="round" stroke-width="1"/><path d="M 738.16706 252.38626 C 738.05936 252.35689 737.9541 252.3373 737.8513 252.32751 C 737.7485 252.31772 737.64812 252.31282 737.5502 252.31282 C 737.2271 252.31282 736.9554 252.37157 736.7351 252.48784 C 736.5148 252.60534 736.33854 252.74731 736.20635 252.91377 C 736.07417 253.079 735.9787 253.26013 735.91996 253.45596 C 735.8612 253.65056 735.83183 253.82069 735.83183 253.96756 L 735.83183 257.71763 L 733.42317 257.71763 L 733.42317 250.41209 L 735.7437 250.41209 L 735.7437 251.46955 L 735.7731 251.46955 C 735.9591 251.09503 736.2235 250.78905 736.5662 250.55284 C 736.9089 250.31662 737.30543 250.1979 737.75583 250.1979 C 737.85374 250.1979 737.9492 250.2028 738.04222 250.21259 C 738.13524 250.22238 738.21112 250.23707 738.26987 250.25665 Z" stroke="lime" stroke-linecap="round" stroke-linejoin="round" stroke-width="1"/><path d="M 744.0416 257.7175 L 744.0416 253.72265 C 744.0416 253.51703 744.02447 253.3212 743.99142 253.13517 C 743.95593 252.94914 743.90085 252.78513 743.8213 252.64316 C 743.74297 252.50118 743.6328 252.38858 743.49207 252.30536 C 743.34887 252.22213 743.16895 252.18052 742.95354 252.18052 C 742.73936 252.18052 742.54965 252.22213 742.3893 252.30536 C 742.22776 252.38858 742.09313 252.50363 741.98543 252.6505 C 741.87772 252.79737 741.79695 252.96627 741.7431 253.1572 C 741.68924 253.34813 741.6623 253.5464 741.6623 253.75202 L 741.6623 257.7175 L 739.23897 257.7175 L 739.23897 250.4034 L 741.5742 250.4034 L 741.5742 251.4168 L 741.60357 251.4168 C 741.6917 251.26014 741.80674 251.10592 741.9487 250.95416 C 742.0907 250.80239 742.25836 250.67266 742.44684 250.56495 C 742.639 250.45725 742.84584 250.36913 743.0735 250.30059 C 743.2987 250.23205 743.53735 250.19778 743.79315 250.19778 C 744.28027 250.19778 744.6964 250.2859 745.0403 250.46214 C 745.383 250.63839 745.6596 250.86604 745.87013 251.14509 C 746.08064 251.42414 746.2312 251.7448 746.3242 252.10708 C 746.4172 252.46936 746.46495 252.83164 746.46495 253.19392 L 746.46495 257.7175 Z" stroke="lime" stroke-linecap="round" stroke-linejoin="round" stroke-width="1"/><path d="M 753.32377 253.22354 C 753.32377 252.84168 753.2038 252.51367 752.96394 252.23951 C 752.72405 251.96536 752.3642 251.82828 751.88444 251.82828 C 751.64945 251.82828 751.43404 251.865 751.2382 251.93843 C 751.0424 252.01186 750.87104 252.11222 750.72417 252.23951 C 750.5773 252.3668 750.4598 252.51612 750.3717 252.68746 C 750.2848 252.85881 750.23583 253.0375 750.2248 253.22354 Z M 755.5415 254.14882 L 755.5415 254.44256 C 755.5415 254.54047 755.5366 254.63349 755.5268 254.72161 L 750.2248 254.72161 C 750.2444 254.92723 750.3056 255.11326 750.4084 255.27971 C 750.5112 255.44617 750.6446 255.59059 750.80495 255.71298 C 750.9665 255.83537 751.14765 255.93084 751.34837 255.99937 C 751.5491 256.06791 751.75716 256.10218 751.97256 256.10218 C 752.35443 256.10218 752.67876 256.0312 752.9419 255.88922 C 753.20627 255.74725 753.4217 255.56366 753.58813 255.33846 L 755.26245 256.39592 C 754.91975 256.89528 754.46813 257.27959 753.90512 257.54885 C 753.3409 257.81811 752.68733 257.95274 751.9432 257.95274 C 751.39488 257.95274 750.87594 257.86707 750.3876 257.69572 C 749.8968 257.52437 749.46966 257.2747 749.10126 256.94668 C 748.7341 256.61868 748.44525 256.21478 748.23473 255.73501 C 748.0242 255.25524 747.91896 254.70692 747.91896 254.09007 C 747.91896 253.4928 748.02177 252.95183 748.2274 252.46716 C 748.433 251.98249 748.71206 251.57125 749.06577 251.23345 C 749.41826 250.89565 749.83316 250.63374 750.31294 250.4477 C 750.7927 250.26167 751.31165 250.16865 751.871 250.16865 C 752.4083 250.16865 752.90274 250.25922 753.35314 250.44036 C 753.80354 250.6215 754.1903 250.88342 754.51463 251.22611 C 754.83652 251.5688 755.08865 251.98494 755.2698 252.4745 C 755.45093 252.96407 755.5415 253.52217 755.5415 254.14882" stroke="lime" stroke-linecap="round" stroke-linejoin="round" stroke-width="1"/><path d="M 761.8433 257.7175 L 761.8433 253.72265 C 761.8433 253.51703 761.82495 253.3212 761.7919 253.13517 C 761.75763 252.94914 761.70133 252.78513 761.6218 252.64316 C 761.54467 252.50118 761.4333 252.38858 761.29255 252.30536 C 761.15057 252.22213 760.97066 252.18052 760.75525 252.18052 C 760.54106 252.18052 760.35136 252.22213 760.1898 252.30536 C 760.02947 252.38858 759.8936 252.50363 759.7859 252.6505 C 759.6782 252.79737 759.59743 252.96627 759.5448 253.1572 C 759.4897 253.34813 759.464 253.5464 759.464 253.75202 L 759.464 257.7175 L 757.03945 257.7175 L 757.03945 250.4034 L 759.37467 250.4034 L 759.37467 251.4168 L 759.40527 251.4168 C 759.4934 251.26014 759.60844 251.10592 759.7504 250.95416 C 759.89116 250.80239 760.05884 250.67266 760.24855 250.56495 C 760.4407 250.45725 760.64754 250.36913 760.87397 250.30059 C 761.09917 250.23205 761.33905 250.19778 761.59363 250.19778 C 762.08197 250.19778 762.4981 250.2859 762.8408 250.46214 C 763.1847 250.63839 763.4601 250.86604 763.6706 251.14509 C 763.88235 251.42414 764.0329 251.7448 764.1259 252.10708 C 764.21892 252.46936 764.26543 252.83164 764.26543 253.19392 L 764.26543 257.7175 Z" stroke="lime" stroke-linecap="round" stroke-linejoin="round" stroke-width="1"/><path d="M 775.3984 257.7175 L 772.97627 257.7175 L 771.53573 253.16455 L 771.50635 253.16455 L 770.0964 257.7175 L 767.67305 257.7175 L 765.1469 250.4034 L 767.7465 250.4034 L 769.00957 255.02979 L 769.05363 255.02979 L 770.36077 250.4034 L 772.7841 250.4034 L 774.1353 255.02979 L 774.1647 255.02979 L 775.44246 250.4034 L 777.93924 250.4034 Z" stroke="lime" stroke-linecap="round" stroke-linejoin="round" stroke-width="1"/><path d="M 783.91684 253.22354 C 783.91684 252.84168 783.7969 252.51367 783.557 252.23951 C 783.3171 251.96536 782.9573 251.82828 782.4775 251.82828 C 782.2425 251.82828 782.0271 251.865 781.8313 251.93843 C 781.63546 252.01186 781.4641 252.11222 781.31724 252.23951 C 781.17037 252.3668 781.0529 252.51612 780.96476 252.68746 C 780.87786 252.85881 780.8289 253.0375 780.8179 253.22354 Z M 786.13457 254.14882 L 786.13457 254.44256 C 786.13457 254.54047 786.12967 254.63349 786.1199 254.72161 L 780.8179 254.72161 C 780.83747 254.92723 780.89867 255.11326 781.00147 255.27971 C 781.1043 255.44617 781.2377 255.59059 781.398 255.71298 C 781.5596 255.83537 781.7407 255.93084 781.94144 255.99937 C 782.14216 256.06791 782.35023 256.10218 782.56564 256.10218 C 782.9475 256.10218 783.27183 256.0312 783.53498 255.88922 C 783.79934 255.74725 784.01475 255.56366 784.1812 255.33846 L 785.8555 256.39592 C 785.5128 256.89528 785.0612 257.27959 784.4982 257.54885 C 783.93397 257.81811 783.2804 257.95274 782.53626 257.95274 C 781.98795 257.95274 781.469 257.86707 780.98067 257.69572 C 780.4899 257.52437 780.06273 257.2747 779.69433 256.94668 C 779.32716 256.61868 779.0383 256.21478 778.8278 255.73501 C 778.6173 255.25524 778.51203 254.70692 778.51203 254.09007 C 778.51203 253.4928 778.61484 252.95183 778.82046 252.46716 C 779.0261 251.98249 779.30513 251.57125 779.65884 251.23345 C 780.01133 250.89565 780.42623 250.63374 780.906 250.4477 C 781.3858 250.26167 781.9047 250.16865 782.46405 250.16865 C 783.00135 250.16865 783.4958 250.25922 783.9462 250.44036 C 784.3966 250.6215 784.78337 250.88342 785.1077 251.22611 C 785.4296 251.5688 785.6817 251.98494 785.86286 252.4745 C 786.044 252.96407 786.13457 253.52217 786.13457 254.14882" stroke="lime" stroke-linecap="round" stroke-linejoin="round" stroke-width="1"/><path d="M 792.6862 252.76812 C 792.5491 252.59188 792.36184 252.4499 792.12807 252.3422 C 791.8931 252.2345 791.65197 252.18064 791.4072 252.18064 C 791.1526 252.18064 790.92374 252.23205 790.71813 252.33485 C 790.5125 252.43766 790.33504 252.57474 790.1894 252.74609 C 790.04253 252.91744 789.92625 253.11571 789.84425 253.34091 C 789.7598 253.56611 789.7182 253.806 789.7182 254.06057 C 789.7182 254.31515 789.75735 254.55503 789.8369 254.78023 C 789.914 255.00543 790.02906 255.20371 790.18083 255.37506 C 790.3326 255.5464 790.51496 255.68104 790.72425 255.77895 C 790.93476 255.87686 791.1734 255.92582 791.43656 255.92582 C 791.68257 255.92582 791.9237 255.87931 792.16357 255.78629 C 792.4047 255.69327 792.59806 255.55864 792.74493 255.3824 L 794.08144 257.01265 C 793.7779 257.3064 793.38503 257.53649 792.9065 257.70294 C 792.4255 257.8694 791.91634 257.95262 791.37904 257.95262 C 790.80013 257.95262 790.2616 257.8645 789.7598 257.68825 C 789.2592 257.51201 788.82473 257.25499 788.4551 256.91719 C 788.0855 256.57939 787.7954 256.1706 787.5837 255.69083 C 787.37195 255.21105 787.26546 254.66763 787.26546 254.06057 C 787.26546 253.4633 787.37195 252.92478 787.5837 252.445 C 787.7954 251.96523 788.0855 251.55645 788.4551 251.21865 C 788.82473 250.88085 789.2592 250.62138 789.7598 250.44024 C 790.2616 250.2591 790.79523 250.16853 791.36435 250.16853 C 791.6287 250.16853 791.89064 250.193 792.1501 250.24196 C 792.40835 250.29092 792.65925 250.35701 792.89914 250.44024 C 793.1378 250.52346 793.35933 250.62627 793.56005 250.74866 C 793.75955 250.87105 793.93457 251.00568 794.08144 251.15255 Z" stroke="lime" stroke-linecap="round" stroke-linejoin="round" stroke-width="1"/><path d="M 802.8792 257.7175 L 799.8965 257.7175 L 797.50252 254.20732 L 797.45846 254.20732 L 797.45846 257.7175 L 795.03634 257.7175 L 795.03634 246.61416 L 797.45846 246.61416 L 797.45846 253.37016 L 797.50252 253.37016 L 799.83898 250.4034 L 802.76046 250.4034 L 799.9418 253.70796 Z" stroke="lime" stroke-linecap="round" stroke-linejoin="round" stroke-width="1"/><path d="M 808.53256 253.22354 C 808.53256 252.84168 808.4126 252.51367 808.17273 252.23951 C 807.93284 251.96536 807.573 251.82828 807.09324 251.82828 C 806.85824 251.82828 806.64283 251.865 806.447 251.93843 C 806.2512 252.01186 806.07983 252.11222 805.93296 252.23951 C 805.7861 252.3668 805.6686 252.51612 805.5805 252.68746 C 805.4936 252.85881 805.4446 253.0375 805.4336 253.22354 Z M 810.7503 254.14882 L 810.7503 254.44256 C 810.7503 254.54047 810.7454 254.63349 810.7356 254.72161 L 805.4336 254.72161 C 805.4532 254.92723 805.5144 255.11326 805.6172 255.27971 C 805.72 255.44617 805.8534 255.59059 806.01374 255.71298 C 806.1753 255.83537 806.35644 255.93084 806.55716 255.99937 C 806.7579 256.06791 806.96595 256.10218 807.18136 256.10218 C 807.5632 256.10218 807.88756 256.0312 808.1507 255.88922 C 808.41506 255.74725 808.63047 255.56366 808.7969 255.33846 L 810.47124 256.39592 C 810.12854 256.89528 809.6769 257.27959 809.1139 257.54885 C 808.5497 257.81811 807.8961 257.95274 807.152 257.95274 C 806.60367 257.95274 806.08473 257.86707 805.5964 257.69572 C 805.1056 257.52437 804.67845 257.2747 804.31006 256.94668 C 803.9429 256.61868 803.65404 256.21478 803.44352 255.73501 C 803.233 255.25524 803.12775 254.70692 803.12775 254.09007 C 803.12775 253.4928 803.23056 252.95183 803.4362 252.46716 C 803.6418 251.98249 803.92085 251.57125 804.27456 251.23345 C 804.62705 250.89565 805.04196 250.63374 805.52173 250.4477 C 806.0015 250.26167 806.52044 250.16865 807.07977 250.16865 C 807.61707 250.16865 808.11153 250.25922 808.56193 250.44036 C 809.01233 250.6215 809.3991 250.88342 809.72343 251.22611 C 810.0453 251.5688 810.29744 251.98494 810.4786 252.4745 C 810.6597 252.96407 810.7503 253.52217 810.7503 254.14882" stroke="lime" stroke-linecap="round" stroke-linejoin="round" stroke-width="1"/><path d="M 816.99237 252.38626 C 816.88467 252.35689 816.7794 252.3373 816.6766 252.32751 C 816.5738 252.31772 816.47343 252.31282 816.3755 252.31282 C 816.0524 252.31282 815.7819 252.37157 815.5604 252.48784 C 815.3401 252.60534 815.16507 252.74731 815.03166 252.91377 C 814.8995 253.079 814.80524 253.26013 814.74527 253.45596 C 814.6865 253.65056 814.65837 253.82069 814.65837 253.96756 L 814.65837 257.71763 L 812.2485 257.71763 L 812.2485 250.41209 L 814.57025 250.41209 L 814.57025 251.46955 L 814.5996 251.46955 C 814.78443 251.09503 815.0488 250.78905 815.3915 250.55284 C 815.7354 250.31662 816.13074 250.1979 816.58114 250.1979 C 816.67905 250.1979 816.7745 250.2028 816.86753 250.21259 C 816.96177 250.22238 817.03643 250.23707 817.0952 250.25665 Z" stroke="lime" stroke-linecap="round" stroke-linejoin="round" stroke-width="1"/><path d="M 705.82673 308.97636 L 705.82673 433.70077 L 836.22043 433.70077 L 836.22043 308.97636 Z M 734.47677 318.02709 C 735.58377 319.13409 735.58377 320.92888 734.47677 322.03588 C 733.36977 323.14288 731.575 323.14288 730.468 322.03588 C 729.361 320.92888 729.361 319.13409 730.468 318.02709 C 731.575 316.92009 733.36977 316.92009 734.47677 318.02709 M 811.57917 318.02709 C 812.68617 319.13409 812.68617 320.92888 811.57917 322.03588 C 810.47217 323.14288 808.67738 323.14288 807.5704 322.03588 C 806.46338 320.92888 806.46338 319.13409 807.5704 318.02709 C 808.67738 316.92009 810.47217 316.92009 811.57917 318.02709 M 734.47677 420.6413 C 735.58377 421.7483 735.58377 423.5431 734.47677 424.65009 C 733.36977 425.7571 731.575 425.7571 730.468 424.65009 C 729.361 423.5431 729.361 421.7483 730.468 420.6413 C 731.575 419.5343 733.36977 419.5343 734.47677 420.6413 M 811.57917 420.6413 C 812.68617 421.7483 812.68617 423.5431 811.57917 424.65009 C 810.47217 425.7571 808.67738 425.7571 807.5704 424.65009 C 806.46338 423.5431 806.46338 421.7483 807.5704 420.6413 C 808.67738 419.5343 810.47217 419.5343 811.57917 420.6413 M 742.6771 328.81888 L 742.6771 314.64565 L 799.37003 314.64565 L 799.37003 328.81888 L 816.3779 328.81888 L 816.3779 413.85825 L 799.37003 413.85825 L 799.37003 428.03148 L 742.6771 428.03148 L 742.6771 413.85825 L 725.66924 413.85825 L 725.66924 328.81888 Z M 711.496 328.81888 L 719.99995 328.81888 L 719.99995 357.16534 L 711.496 357.16534 Z M 711.496 385.5118 L 719.99995 385.5118 L 719.99995 413.85825 L 711.496 413.85825 Z M 822.0472 328.81888 L 830.55113 328.81888 L 830.55113 357.16534 L 822.0472 357.16534 Z M 822.0472 385.5118 L 830.55113 385.5118 L 830.55113 413.85825 L 822.0472 413.85825 Z" stroke="blue" stroke-linecap="round" stroke-linejoin="round" stroke-width=".5"/><path d="M 719.99995 490.748 L 719.99995 518.3858 L 711.496 518.3858 L 711.496 547.4409 L 719.99995 547.4409 L 719.99995 555.59052 L 739.84247 555.59052 L 739.84247 547.4409 L 748.3464 547.4409 L 748.3464 518.3858 L 739.84247 518.3858 L 739.84247 490.748 L 748.3464 490.748 L 748.3464 461.69288 L 739.84247 461.69288 L 739.84247 453.54328 L 719.99995 453.54328 L 719.99995 461.69288 L 711.496 461.69288 L 711.496 490.748 Z" stroke="blue" stroke-linecap="round" stroke-linejoin="round" stroke-width=".5"/><path d="M 776.69287 490.748 L 776.69287 518.3858 L 768.18893 518.3858 L 768.18893 547.4409 L 776.69287 547.4409 L 776.69287 555.59052 L 796.5354 555.59052 L 796.5354 547.4409 L 805.0393 547.4409 L 805.0393 518.3858 L 796.5354 518.3858 L 796.5354 490.748 L 805.0393 490.748 L 805.0393 461.69288 L 796.5354 461.69288 L 796.5354 453.54328 L 776.69287 453.54328 L 776.69287 461.69288 L 768.18893 461.69288 L 768.18893 490.748 Z" stroke="blue" stroke-linecap="round" stroke-linejoin="round" stroke-width=".5"/><path d="M 154.41694 404.0082 C 158.29145 407.8827 158.29145 414.16449 154.41694 418.03898 C 150.54245 421.91349 144.260665 421.91349 140.386175 418.03898 C 136.511665 414.16449 136.511665 407.8827 140.386175 404.0082 C 144.260665 400.1337 150.54245 400.1337 154.41694 404.0082 M 76.535387 524.40942 L 76.535387 515.90542 L 104.881844 515.90542 L 104.881844 524.40942 L 133.2283 524.40942 L 133.2283 515.90542 L 161.57475 515.90542 L 161.57475 524.40942 L 189.9212 524.40942 L 189.9212 515.90542 L 218.26766 515.90542 L 218.26766 524.40942 C 241.75067 524.40943 260.78741 505.37268 260.78739 481.88967 L 252.28341 481.88968 L 252.28341 453.54322 L 260.78738 453.54322 C 260.78738 445.26878 260.78738 435.61873 260.78738 425.19676 L 252.28341 425.19677 L 252.28341 396.85031 L 260.78738 396.85031 C 260.78738 387.45895 260.78738 377.89477 260.78737 368.50385 L 252.28341 368.50386 L 252.28341 340.1574 L 260.78737 340.1574 C 260.78737 322.9854 260.78737 307.91159 260.78737 297.63777 L 218.26766 297.63777 L 218.26766 306.14166 L 189.9212 306.14166 L 189.9212 297.63777 L 161.57475 297.63777 L 161.57475 306.14166 L 133.2283 306.14166 L 133.2283 297.63777 L 104.881844 297.63777 L 104.881844 306.14166 L 76.535387 306.14166 L 76.535387 297.63777 C 53.05244 297.63779 34.015759 316.67447 34.015727 340.1574 L 42.51964 340.1574 L 42.51964 368.50386 L 34.015727 368.50386 L 34.015727 396.85031 L 42.51964 396.85031 L 42.51964 425.19677 L 34.015727 425.19677 L 34.015727 453.54322 L 42.51964 453.54322 L 42.51964 481.88968 L 34.015727 481.88968 C 34.015707 505.37267 53.052414 524.4094 76.53539 524.40942 Z" stroke="blue" stroke-linecap="round" stroke-linejoin="round" stroke-width=".5"/><line x1="205.5119" y1="85.039365" x2="205.5119" y2="172.91338" stroke="blue" stroke-linecap="round" stroke-linejoin="round" stroke-width=".5"/><line x1="205.51185" y1="178.58267" x2="205.51185" y2="266.45668" stroke="blue" stroke-linecap="round" stroke-linejoin="round" stroke-width=".5"/><line x1="216.85048" y1="85.039365" x2="216.85048" y2="172.91338" stroke="blue" stroke-linecap="round" stroke-linejoin="round" stroke-width=".5"/><line x1="216.85043" y1="178.58267" x2="216.85043" y2="266.45668" stroke="blue" stroke-linecap="round" stroke-linejoin="round" stroke-width=".5"/><line x1="228.18907" y1="85.039365" x2="228.18907" y2="172.91338" stroke="blue" stroke-linecap="round" stroke-linejoin="round" stroke-width=".5"/><line x1="228.18902" y1="178.58267" x2="228.18902" y2="266.45668" stroke="blue" stroke-linecap="round" stroke-linejoin="round" stroke-width=".5"/><line x1="239.52765" y1="85.039365" x2="239.52765" y2="172.91338" stroke="blue" stroke-linecap="round" stroke-linejoin="round" stroke-width=".5"/><line x1="239.5276" y1="178.58267" x2="239.5276" y2="266.45668" stroke="blue" stroke-linecap="round" stroke-linejoin="round" stroke-width=".5"/><line x1="250.86623" y1="85.039365" x2="250.86623" y2="172.91338" stroke="blue" stroke-linecap="round" stroke-linejoin="round" stroke-width=".5"/><line x1="250.86618" y1="178.58267" x2="250.86618" y2="266.45668" stroke="blue" stroke-linecap="round" stroke-linejoin="round" stroke-width=".5"/><line x1="222.51978" y1="127.55905" x2="222.51978" y2="223.937" stroke="blue" stroke-linecap="round" stroke-linejoin="round" stroke-width=".5"/><line x1="222.51978" y1="85.039365" x2="222.51978" y2="121.88976" stroke="blue" stroke-linecap="round" stroke-linejoin="round" stroke-width=".5"/><line x1="222.51978" y1="229.60629" x2="222.51978" y2="266.45668" stroke="blue" stroke-linecap="round" stroke-linejoin="round" stroke-width=".5"/><line x1="211.18119" y1="127.55905" x2="211.18119" y2="223.937" stroke="blue" stroke-linecap="round" stroke-linejoin="round" stroke-width=".5"/><line x1="211.18119" y1="85.039365" x2="211.18119" y2="121.88976" stroke="blue" stroke-linecap="round" stroke-linejoin="round" stroke-width=".5"/><line x1="211.18119" y1="229.60629" x2="211.18119" y2="266.45668" stroke="blue" stroke-linecap="round" stroke-linejoin="round" stroke-width=".5"/><line x1="233.85836" y1="127.55905" x2="233.85836" y2="223.937" stroke="blue" stroke-linecap="round" stroke-linejoin="round" stroke-width=".5"/><line x1="233.85836" y1="85.039365" x2="233.85836" y2="121.88976" stroke="blue" stroke-linecap="round" stroke-linejoin="round" stroke-width=".5"/><line x1="233.85836" y1="229.60629" x2="233.85836" y2="266.45668" stroke="blue" stroke-linecap="round" stroke-linejoin="round" stroke-width=".5"/><line x1="245.19694" y1="127.55905" x2="245.19694" y2="223.937" stroke="blue" stroke-linecap="round" stroke-linejoin="round" stroke-width=".5"/><line x1="245.19694" y1="85.039365" x2="245.19694" y2="121.88976" stroke="blue" stroke-linecap="round" stroke-linejoin="round" stroke-width=".5"/><line x1="245.19694" y1="229.60629" x2="245.19694" y2="266.45668" stroke="blue" stroke-linecap="round" stroke-linejoin="round" stroke-width=".5"/><line x1="256.53552" y1="127.55905" x2="256.53552" y2="223.937" stroke="blue" stroke-linecap="round" stroke-linejoin="round" stroke-width=".5"/><line x1="256.53552" y1="85.039365" x2="256.53552" y2="121.88976" stroke="blue" stroke-linecap="round" stroke-linejoin="round" stroke-width=".5"/><line x1="256.53552" y1="229.60629" x2="256.53552" y2="266.45668" stroke="blue" stroke-linecap="round" stroke-linejoin="round" stroke-width=".5"/><path d="M 351.49602 331.65345 L 436.53539 331.65345 L 436.53539 501.7322 L 351.49602 501.7322 Z M 323.14957 530.0787 L 323.14957 521.5747 L 351.49602 521.5747 L 351.49602 530.0787 L 379.84248 530.0787 L 379.84248 521.5747 L 408.18893 521.5747 L 408.18893 530.0787 L 436.53538 530.0787 L 436.53538 521.5747 L 464.88184 521.5747 L 464.88184 530.0787 C 488.36485 530.07872 507.4016 511.04197 507.40157 487.55895 L 498.8976 487.55896 L 498.8976 459.2125 L 507.40156 459.2125 C 507.40156 450.93806 507.40156 441.288 507.40156 430.86604 L 498.8976 430.86605 L 498.8976 402.5196 L 507.40156 402.5196 C 507.40156 393.12823 507.40155 383.56405 507.40155 374.17313 L 498.8976 374.17314 L 498.8976 345.82668 L 507.40155 345.82668 C 507.40155 328.65468 507.40155 313.58087 507.40155 303.30706 L 464.88184 303.30706 L 464.88184 311.81094 L 450.7086 311.81094 L 450.7086 303.30706 L 337.3228 303.30706 L 337.3228 311.81094 L 323.14957 311.81094 L 323.14957 303.30706 C 299.66662 303.30708 280.62994 322.34375 280.6299 345.82669 L 289.13382 345.82668 L 289.13382 374.17314 L 280.6299 374.17314 L 280.6299 402.5196 L 289.13382 402.5196 L 289.13382 430.86605 L 280.6299 430.86605 L 280.6299 459.2125 L 289.13382 459.2125 L 289.13382 487.55896 L 280.6299 487.55896 C 280.62988 511.04195 299.66659 530.0787 323.14957 530.0787 Z" stroke="blue" stroke-linecap="round" stroke-linejoin="round" stroke-width=".5"/><path d="M 569.76373 527.24408 C 569.76373 538.1258 573.915 549.00752 582.2175 557.31 C 598.82247 573.91504 625.7444 573.91504 642.34936 557.31 C 650.65188 549.00752 654.80314 538.1258 654.80314 527.24407 L 668.97635 527.24408 L 668.97635 308.97636 L 555.59052 308.97636 L 555.59052 527.24408 Z M 583.93696 527.24408 L 640.6299 527.24408 C 640.6299 534.49856 637.8624 541.75304 632.3274 547.28803 C 621.2574 558.35805 603.30946 558.35805 592.2395 547.28803 C 586.70447 541.75304 583.93696 534.49856 583.93696 527.24408 Z" stroke="blue" stroke-linecap="round" stroke-linejoin="round" stroke-width=".5"/><line x1="401.10244" y1="85.039365" x2="401.10244" y2="172.91338" stroke="blue" stroke-linecap="round" stroke-linejoin="round" stroke-width=".5"/><line x1="401.1024" y1="178.58267" x2="401.1024" y2="266.45668" stroke="blue" stroke-linecap="round" stroke-linejoin="round" stroke-width=".5"/><line x1="412.44102" y1="85.039365" x2="412.44102" y2="172.91338" stroke="blue" stroke-linecap="round" stroke-linejoin="round" stroke-width=".5"/><line x1="412.44097" y1="178.58267" x2="412.44097" y2="266.45668" stroke="blue" stroke-linecap="round" stroke-linejoin="round" stroke-width=".5"/><line x1="423.7796" y1="85.039365" x2="423.7796" y2="172.91338" stroke="blue" stroke-linecap="round" stroke-linejoin="round" stroke-width=".5"/><line x1="423.77956" y1="178.58267" x2="423.77956" y2="266.45668" stroke="blue" stroke-linecap="round" stroke-linejoin="round" stroke-width=".5"/><line x1="435.1182" y1="85.039365" x2="435.1182" y2="172.91338" stroke="blue" stroke-linecap="round" stroke-linejoin="round" stroke-width=".5"/><line x1="435.11814" y1="178.58267" x2="435.11814" y2="266.45668" stroke="blue" stroke-linecap="round" stroke-linejoin="round" stroke-width=".5"/><line x1="446.45677" y1="85.039365" x2="446.45677" y2="172.91338" stroke="blue" stroke-linecap="round" stroke-linejoin="round" stroke-width=".5"/><line x1="446.45672" y1="178.58267" x2="446.45672" y2="266.45668" stroke="blue" stroke-linecap="round" stroke-linejoin="round" stroke-width=".5"/><line x1="418.11032" y1="127.55905" x2="418.11032" y2="223.937" stroke="blue" stroke-linecap="round" stroke-linejoin="round" stroke-width=".5"/><line x1="418.11032" y1="85.039365" x2="418.11032" y2="121.88976" stroke="blue" stroke-linecap="round" stroke-linejoin="round" stroke-width=".5"/><line x1="418.11032" y1="229.60629" x2="418.11032" y2="266.45668" stroke="blue" stroke-linecap="round" stroke-linejoin="round" stroke-width=".5"/><line x1="406.77173" y1="127.55905" x2="406.77173" y2="223.937" stroke="blue" stroke-linecap="round" stroke-linejoin="round" stroke-width=".5"/><line x1="406.77173" y1="85.039365" x2="406.77173" y2="121.88976" stroke="blue" stroke-linecap="round" stroke-linejoin="round" stroke-width=".5"/><line x1="406.77173" y1="229.60629" x2="406.77173" y2="266.45668" stroke="blue" stroke-linecap="round" stroke-linejoin="round" stroke-width=".5"/><line x1="429.4489" y1="127.55905" x2="429.4489" y2="223.937" stroke="blue" stroke-linecap="round" stroke-linejoin="round" stroke-width=".5"/><line x1="429.4489" y1="85.039365" x2="429.4489" y2="121.88976" stroke="blue" stroke-linecap="round" stroke-linejoin="round" stroke-width=".5"/><line x1="429.4489" y1="229.60629" x2="429.4489" y2="266.45668" stroke="blue" stroke-linecap="round" stroke-linejoin="round" stroke-width=".5"/><line x1="440.78748" y1="127.55905" x2="440.78748" y2="223.937" stroke="blue" stroke-linecap="round" stroke-linejoin="round" stroke-width=".5"/><line x1="440.78748" y1="85.039365" x2="440.78748" y2="121.88976" stroke="blue" stroke-linecap="round" stroke-linejoin="round" stroke-width=".5"/><line x1="440.78748" y1="229.60629" x2="440.78748" y2="266.45668" stroke="blue" stroke-linecap="round" stroke-linejoin="round" stroke-width=".5"/><line x1="452.12606" y1="127.55905" x2="452.12606" y2="223.937" stroke="blue" stroke-linecap="round" stroke-linejoin="round" stroke-width=".5"/><line x1="452.12606" y1="85.039365" x2="452.12606" y2="121.88976" stroke="blue" stroke-linecap="round" stroke-linejoin="round" stroke-width=".5"/><line x1="452.12606" y1="229.60629" x2="452.12606" y2="266.45668" stroke="blue" stroke-linecap="round" stroke-linejoin="round" stroke-width=".5"/><line x1="596.693" y1="85.039365" x2="596.693" y2="172.91338" stroke="blue" stroke-linecap="round" stroke-linejoin="round" stroke-width=".5"/><line x1="596.69293" y1="178.58267" x2="596.69293" y2="266.45668" stroke="blue" stroke-linecap="round" stroke-linejoin="round" stroke-width=".5"/><line x1="608.03156" y1="85.039365" x2="608.03156" y2="172.91338" stroke="blue" stroke-linecap="round" stroke-linejoin="round" stroke-width=".5"/><line x1="608.0315" y1="178.58267" x2="608.0315" y2="266.45668" stroke="blue" stroke-linecap="round" stroke-linejoin="round" stroke-width=".5"/><line x1="619.37015" y1="85.039365" x2="619.37015" y2="172.91338" stroke="blue" stroke-linecap="round" stroke-linejoin="round" stroke-width=".5"/><line x1="619.3701" y1="178.58267" x2="619.3701" y2="266.45668" stroke="blue" stroke-linecap="round" stroke-linejoin="round" stroke-width=".5"/><line x1="630.70873" y1="85.039365" x2="630.70873" y2="172.91338" stroke="blue" stroke-linecap="round" stroke-linejoin="round" stroke-width=".5"/><line x1="630.70868" y1="178.58267" x2="630.70868" y2="266.45668" stroke="blue" stroke-linecap="round" stroke-linejoin="round" stroke-width=".5"/><line x1="642.0473" y1="85.039365" x2="642.0473" y2="172.91338" stroke="blue" stroke-linecap="round" stroke-linejoin="round" stroke-width=".5"/><line x1="642.04726" y1="178.58267" x2="642.04726" y2="266.45668" stroke="blue" stroke-linecap="round" stroke-linejoin="round" stroke-width=".5"/><line x1="613.70086" y1="127.55905" x2="613.70086" y2="223.937" stroke="blue" stroke-linecap="round" stroke-linejoin="round" stroke-width=".5"/><line x1="613.70086" y1="85.039365" x2="613.70086" y2="121.88976" stroke="blue" stroke-linecap="round" stroke-linejoin="round" stroke-width=".5"/><line x1="613.70086" y1="229.60629" x2="613.70086" y2="266.45668" stroke="blue" stroke-linecap="round" stroke-linejoin="round" stroke-width=".5"/><line x1="602.36227" y1="127.55905" x2="602.36227" y2="223.937" stroke="blue" stroke-linecap="round" stroke-linejoin="round" stroke-width=".5"/><line x1="602.36227" y1="85.039365" x2="602.36227" y2="121.88976" stroke="blue" stroke-linecap="round" stroke-linejoin="round" stroke-width=".5"/><line x1="602.36227" y1="229.60629" x2="602.36227" y2="266.45668" stroke="blue" stroke-linecap="round" stroke-linejoin="round" stroke-width=".5"/><line x1="625.03944" y1="127.55905" x2="625.03944" y2="223.937" stroke="blue" stroke-linecap="round" stroke-linejoin="round" stroke-width=".5"/><line x1="625.03944" y1="85.039365" x2="625.03944" y2="121.88976" stroke="blue" stroke-linecap="round" stroke-linejoin="round" stroke-width=".5"/><line x1="625.03944" y1="229.60629" x2="625.03944" y2="266.45668" stroke="blue" stroke-linecap="round" stroke-linejoin="round" stroke-width=".5"/><line x1="636.37802" y1="127.55905" x2="636.37802" y2="223.937" stroke="blue" stroke-linecap="round" stroke-linejoin="round" stroke-width=".5"/><line x1="636.37802" y1="85.039365" x2="636.37802" y2="121.88976" stroke="blue" stroke-linecap="round" stroke-linejoin="round" stroke-width=".5"/><line x1="636.37802" y1="229.60629" x2="636.37802" y2="266.45668" stroke="blue" stroke-linecap="round" stroke-linejoin="round" stroke-width=".5"/><line x1="647.7166" y1="127.55905" x2="647.7166" y2="223.937" stroke="blue" stroke-linecap="round" stroke-linejoin="round" stroke-width=".5"/><line x1="647.7166" y1="85.039365" x2="647.7166" y2="121.88976" stroke="blue" stroke-linecap="round" stroke-linejoin="round" stroke-width=".5"/><line x1="647.7166" y1="229.60629" x2="647.7166" y2="266.45668" stroke="blue" stroke-linecap="round" stroke-linejoin="round" stroke-width=".5"/></g></g></svg>
